<?xml version="1.0" encoding="utf-8"?>
<!-- Generator: Adobe Illustrator 26.0.0, SVG Export Plug-In . SVG Version: 6.00 Build 0)  -->
<svg version="1.1" id="Layer_1" xmlns="http://www.w3.org/2000/svg" xmlns:xlink="http://www.w3.org/1999/xlink" x="0px" y="0px"
	 viewBox="0 0 32 30" style="enable-background:new 0 0 32 30;" xml:space="preserve">
<style type="text/css">
	.st0{fill:#0000FF;}
</style>
<g id="Layer_2_00000029016384453405874140000007075221022038321843_">
	<g id="Layer_1-2">
		<rect x="22" y="2" class="st0" width="6" height="2"/>
		<polygon class="st0" points="2,24 2,6 4,6 4,4 0,4 0,26 4,26 4,24 		"/>
		<rect x="10" class="st0" width="12" height="2"/>
		<rect x="4" y="26" class="st0" width="6" height="2"/>
		<rect x="10" y="28" class="st0" width="12" height="2"/>
		<rect x="4" y="2" class="st0" width="6" height="2"/>
		<rect x="7" y="20" class="st0" width="18" height="2"/>
		<polygon class="st0" points="28,4 28,6 30,6 30,24 28,24 28,26 32,26 32,4 		"/>
		<rect x="7" y="8" class="st0" width="18" height="2"/>
		<rect x="7" y="14" class="st0" width="18" height="2"/>
		<rect x="22" y="26" class="st0" width="6" height="2"/>
	</g>
</g>
</svg>
