<svg xmlns="http://www.w3.org/2000/svg" viewBox="0 0 355.54 185.76"><defs><style>.cls-1{fill:#fff;}</style></defs><g id="Layer_2" data-name="Layer 2"><g id="Layer_7" data-name="Layer 7"><path class="cls-1" d="M5.57,131H9.29L20.8,0H73.56L89.91,185.76H61.11L58.7,157.89h-23l-2.42,27.87H4.46l2.41-27.87H0Zm32.51,0h18.2L47.18,27.49Z"/><path class="cls-1" d="M154.55,0Q164.77,0,171,6.22t6.22,16.44v86.57q0,10.22-6.22,16.44t-16.44,6.22H135.42v53.87h-28.8V26.93h-5.57L106.62,0ZM135.42,26.93v78h13v-78Z"/><path class="cls-1" d="M193.93,0h65V26.93H222.72V79.32H247.8v26.93H222.72v52.57h36.22v26.94h-65V26.93h-5.57Z"/><path class="cls-1" d="M326.75,185.76l-13.94-60-13.93,60H270.09l21.55-92.88L276.4,26.93h-5.57L276.4,0h22.48l13.93,60L326.75,0h28.79L334,92.88l21.55,92.88Z"/></g></g></svg>