<svg xmlns="http://www.w3.org/2000/svg" viewBox="0 0 721.84 151.58"><defs><style>.cls-1{fill:#fff;}</style></defs><g id="Layer_2" data-name="Layer 2"><g id="Layer_7" data-name="Layer 7"><path class="cls-1" d="M96.59,11.89v49L90.65,75.79l5.94,14.86v49l-4.45,11.89H0l4.46-11.89V11.89L0,0H92.14ZM65.39,56.47V35.67l-3-4.46H35.67V60.93H62.41Zm0,59.44V95.11l-3-4.46H35.67v29.72H62.41Z"/><path class="cls-1" d="M209.16,0V35.67l-11.89-4.46h-52V60.93H172l11.89-4.46V95.11L172,90.65H145.26v29.72h52l11.89-4.46v35.67H109.6l4.46-11.89V11.89L109.6,0Z"/><path class="cls-1" d="M323.22,139.69l4.45,11.89H292L257.83,72.82v78.76H222.16l4.46-11.89V11.89L222.16,0h35.67L292,78.76V0h35.66l-4.45,11.89Z"/><path class="cls-1" d="M441.73,139.69l4.46,11.89H410.52L376.34,72.82v78.76H340.67l4.46-11.89V11.89L340.67,0h35.67l34.18,78.76V0h35.67l-4.46,11.89Z"/><path class="cls-1" d="M572.13,0,561.72,11.89l-31.2,77.27v50.53L535,151.58H494.85l4.46-11.89V89.16L469.59,11.89,459.19,0h46.06L500.8,11.89l14.86,38.64,14.86-38.64L526.06,0Z"/><path class="cls-1" d="M616.71,0l-6,11.52L585.13,38.64,587.73,0Z"/><path class="cls-1" d="M721.84,37.52,710,31.21H665.37l-4.45,3V58l4.45,3H710l11.88,4.46v81.73L710,151.58H641.6l-11.89-6.32V114.05l11.89,6.32h44.58l4.46-3V93.62l-4.46-3H641.6l-11.89-5.94V4.46L641.6,0H710l11.88,6.32Z"/></g></g></svg>