<svg xmlns="http://www.w3.org/2000/svg" viewBox="0 0 598.5 130.03"><defs><style>.cls-1{fill:#fff;}</style></defs><g id="Layer_2" data-name="Layer 2"><g id="Layer_7" data-name="Layer 7"><path class="cls-1" d="M0,53.87H11.15V0H53.5a10.26,10.26,0,0,1,7.61,2.79A10.26,10.26,0,0,1,63.9,10.4V53.68q0,6.33-4.83,9.11A8.69,8.69,0,0,1,64,66.32a11,11,0,0,1,1.77,6.31v47A9.64,9.64,0,0,1,55.36,130H11.15V72.45H0Zm27.31,0H47.74V18.58H27.31Zm0,57.58H49.6v-39H27.31Z"/><path class="cls-1" d="M80.62,10.4A10.29,10.29,0,0,1,83.4,2.79,10.3,10.3,0,0,1,91,0h33.81a10.26,10.26,0,0,1,7.61,2.79,10.26,10.26,0,0,1,2.79,7.61V119.63a9.64,9.64,0,0,1-10.4,10.4H91a9.62,9.62,0,0,1-10.4-10.4ZM96.78,111.45h22.29V18.58H96.78Z"/><path class="cls-1" d="M146.37,10.4a10.26,10.26,0,0,1,2.79-7.61A10.28,10.28,0,0,1,156.78,0h33.8a10.3,10.3,0,0,1,7.62,2.79A10.26,10.26,0,0,1,201,10.4V119.63A9.64,9.64,0,0,1,190.58,130h-33.8a9.64,9.64,0,0,1-10.41-10.4Zm16.17,101.05h22.29V18.58H162.54Z"/><path class="cls-1" d="M248.17,130H232V18.58H212.13V0h55.73V18.58H248.17Z"/><path class="cls-1" d="M333.61,27.86H317.45V18.58H295.16V55.73h28a9.61,9.61,0,0,1,10.4,10.4v53.5a9.62,9.62,0,0,1-10.4,10.4H289.4a9.64,9.64,0,0,1-10.4-10.4V102.17h16.16v9.28h22.29V74.3H289.4A9.62,9.62,0,0,1,279,63.9V10.4a10.26,10.26,0,0,1,2.79-7.61A10.26,10.26,0,0,1,289.4,0h33.81a10.3,10.3,0,0,1,7.62,2.79,10.29,10.29,0,0,1,2.78,7.61Z"/><path class="cls-1" d="M385.07,0h16.16V130H385.07V74.3H362.78V130H346.61V0h16.17V55.73h22.29Z"/><path class="cls-1" d="M468.84,130H452.68V81.73H430.39V130H414.23V10.4A10.26,10.26,0,0,1,417,2.79,10.26,10.26,0,0,1,424.63,0h33.81a10.3,10.3,0,0,1,7.62,2.79,10.29,10.29,0,0,1,2.78,7.61ZM452.68,63.16V18.58H430.39V63.16Z"/><path class="cls-1" d="M479.06,0h16.16V111.45h22.29V0h16.16V119.63a9.64,9.64,0,0,1-10.4,10.4H489.46a9.62,9.62,0,0,1-10.4-10.4Z"/><path class="cls-1" d="M598.5,27.86H582.34V18.58H560.05V55.73H588.1a9.62,9.62,0,0,1,10.4,10.4v53.5A9.64,9.64,0,0,1,588.1,130H554.29a9.62,9.62,0,0,1-10.4-10.4V102.17h16.16v9.28h22.29V74.3H554.29a9.61,9.61,0,0,1-10.4-10.4V10.4a10.25,10.25,0,0,1,2.78-7.61A10.3,10.3,0,0,1,554.29,0H588.1a10.29,10.29,0,0,1,7.61,2.79,10.26,10.26,0,0,1,2.79,7.61Z"/></g></g></svg>