<svg xmlns="http://www.w3.org/2000/svg" viewBox="0 0 519.02 200"><defs><style>.cls-1{fill:#fff;}</style></defs><g id="Layer_2" data-name="Layer 2"><g id="Layer_7" data-name="Layer 7"><path class="cls-1" d="M.73,65.21,2.42,9.45,13.09,4.61l21.09-.73L58.91.73l3.15,7L56.73,69.82l-21.09-.73,3.87-39.51L34.18,25.7,30.3,30.3V45.82L26.42,104l-1.69,57.45,3.88,4.61,3.15-6.3V149.09L34.91,135l.73-12.36,23.27,2.18V158.3L55,191.76,4.61,193.21,0,186.91l3.88-7.76Z"/><path class="cls-1" d="M125.09,197.09l-21.58-3.15-2.42-38.06-8.49-.73-2.42,31L88,194.67l-21.09-2.19,3.15-29.57V140.36L83.39,14.79,86.3,5.58l25,2.91L112,26.42l9.21,104,1,22.55ZM99.63,121.94,96.48,83.15l-2.42-1-.73,2.43-.73,44.12,6.31,3.88Z"/><path class="cls-1" d="M168,2.18l20.85-.73-2.18,38.79L185,114.67v22.54l5.58,62.06-18.67-1.69v-8.49l-17.94-75.15-.72,23.27,5.33,62.06-20.12.73-5.33-90.67-3.16-39.75,1.46-61.09,25.7,5.33L161,43.39,164.84,79,168,40.24Z"/><path class="cls-1" d="M252.11,121l-1.69,52.85-5.34,12.36-7.75,7-41.22-2.42-.72-83.64.72-78.3-.72-23.27,26.42,3.87h20.85l8.48,11.64Zm-25,36.61v-56l-.72-66.67-6.31-.73-1.45,3.15V166.06l2.42,4.61Z"/><path class="cls-1" d="M298.17,0,320,3.15,303.51,72.24l-2.91,121-21.82-3.15-2.42-7L274.9,91.64l-7-37.34L264,21.82l-7-7,7-3.88,20.12,5.33,2.43,35.88,3.15-4.85Z"/><path class="cls-1" d="M383,102.54l3.15,68.13-12.6,19.39-48.73,3.15.73-18.67.72-79L330.9,6.3l40.49-.72,14.78,10.66L384.48,87,375.26,97ZM351.26,81.45l2.91,3.88L359,74.42v-48l-6.3-.72Zm9.94,45.1-5.33-11.64-2.42,1.45-.73,44.37,3.15,9.21,5.33-.73Z"/><path class="cls-1" d="M450.66,103.27l-3.15,69.09-9.22,20.85-34.18-3.88L391,174.54l2.91-158.3,7-12.36,18.67,1.7L435.14,1.7l10.91,12.36,3.88,33.21ZM428.11,58.18l-5.33-35.63-5.58-.73-2.91,1.45L412.6,73.7l1.69,91.63,4.61,4.61,2.18-3.15,5.58-71.28Z"/><path class="cls-1" d="M496.47,177.7l-6.79-41.22-3.15,3.88-10.18,52.85-20.85-3.15L475.62,83.88,456.23,6.3h10.18l9.94-3.88,3.88,20.13,7,31,3.88-16.25,2.42-26.42L495,2.42l22.54,1.46-3.15,6.3-12.36,73.7V97l17,96.24H496.47Z"/></g></g></svg>