<svg xmlns="http://www.w3.org/2000/svg" viewBox="0 0 908.46 134.7"><defs><style>.cls-1{fill:#fff;}</style></defs><g id="Layer_2" data-name="Layer 2"><g id="Layer_7" data-name="Layer 7"><path class="cls-1" d="M73.3,73.62a7.29,7.29,0,0,1,7.84,7.83v39.16q0,6.42-3.84,10.26T67,134.7H14.1q-6.43,0-10.26-3.83T0,120.61V14.1Q0,7.68,3.84,3.84T14.1,0H67Q73.46,0,77.3,3.84T81.14,14.1V51.69a7.29,7.29,0,0,1-7.84,7.83H55.45a7.28,7.28,0,0,1-7.83-7.83V21.15a7.05,7.05,0,1,0-14.1,0v92.41a6.72,6.72,0,0,0,7,7,6.72,6.72,0,0,0,7-7V81.45a7.28,7.28,0,0,1,7.83-7.83Z"/><path class="cls-1" d="M112.62,134.7c-4.29,0-7.7-1.27-10.26-3.83s-3.84-6-3.84-10.26V14.1q0-6.42,3.84-10.26c2.56-2.56,6-3.84,10.26-3.84h52.94Q172,0,175.82,3.84t3.84,10.26V120.61q0,6.42-3.84,10.26t-10.26,3.83Zm26.63-14.09a6.63,6.63,0,0,0,5-2,7.06,7.06,0,0,0,1.88-5.09V21.15a7.05,7.05,0,1,0-14.1,0v92.41a6.72,6.72,0,0,0,7.05,7Z"/><path class="cls-1" d="M211.14,134.7q-6.42,0-10.26-3.83T197,120.61V14.1q0-6.42,3.84-10.26T211.14,0h52.94q6.42,0,10.26,3.84t3.84,10.26V120.61q0,6.42-3.84,10.26t-10.26,3.83Zm26.63-14.09a6.61,6.61,0,0,0,5-2,7.06,7.06,0,0,0,1.88-5.09V21.15a7.05,7.05,0,1,0-14.1,0v92.41a6.72,6.72,0,0,0,7.05,7Z"/><path class="cls-1" d="M368.87,67.35a7.31,7.31,0,0,1,7.83,7.83v45.43q0,6.42-3.84,10.26T362.6,134.7H309.66q-6.42,0-10.26-3.83t-3.84-10.26V7.83a7.74,7.74,0,0,1,2.12-5.72A7.71,7.71,0,0,1,303.39,0h17.86A7.73,7.73,0,0,1,327,2.11a7.73,7.73,0,0,1,2.11,5.72V99.46a7.05,7.05,0,1,0,14.1,0V75.18A7.29,7.29,0,0,1,351,67.35Z"/><path class="cls-1" d="M514.37,52.47a7,7,0,0,1-1.88,5.09,6.6,6.6,0,0,1-5,2,7.25,7.25,0,0,0-5.24,1.88,6.6,6.6,0,0,0-2,5,7.09,7.09,0,0,0,2,5.25,6.86,6.86,0,0,0,5.09,2,6.69,6.69,0,0,1,7,7v39.94q0,6.42-3.83,10.26t-10.26,3.83H447.34q-6.43,0-10.26-3.83t-3.84-10.26V14.1q0-6.42,3.84-10.26T447.34,0h52.94q6.42,0,10.26,3.84t3.83,10.26Zm-47.61,0a7,7,0,1,0,14.09,0V21.15a7.08,7.08,0,0,0-1.87-5.1,6.67,6.67,0,0,0-5-2,7.09,7.09,0,0,0-5.24,2,6.9,6.9,0,0,0-2,5.1Zm14.09,28.2a7.08,7.08,0,0,0-1.87-5.1,6.67,6.67,0,0,0-5-1.95,7.09,7.09,0,0,0-5.24,1.95,6.9,6.9,0,0,0-2,5.1v32.89a7,7,0,1,0,14.09,0Z"/><path class="cls-1" d="M605.06,73.62a7.28,7.28,0,0,1,7.83,7.83v39.16q0,6.42-3.83,10.26T598.8,134.7H545.86q-6.43,0-10.26-3.83t-3.84-10.26V14.1q0-6.42,3.84-10.26T545.86,0H598.8q6.42,0,10.26,3.84t3.83,10.26V51.69a7.28,7.28,0,0,1-7.83,7.83H587.21a7.28,7.28,0,0,1-7.83-7.83V21.15a7.05,7.05,0,1,0-14.1,0V60.3h.16a7.05,7.05,0,1,1,0,14.1h-.16v39.16a7.05,7.05,0,1,0,14.1,0V81.45a7.28,7.28,0,0,1,7.83-7.83Z"/><path class="cls-1" d="M644.38,134.7q-6.43,0-10.26-3.83t-3.84-10.26V14.1q0-6.42,3.84-10.26T644.38,0h52.94q6.42,0,10.26,3.84t3.84,10.26V120.61q0,6.42-3.84,10.26t-10.26,3.83H684.94a6.69,6.69,0,0,1-7-7V73.93H663.8v53.73a6.71,6.71,0,0,1-7,7ZM663.8,59.83h14.1V35.09a6.67,6.67,0,0,0-2-5,7.83,7.83,0,0,0-10.18,0,6.64,6.64,0,0,0-2,5Z"/><path class="cls-1" d="M742.9,134.7c-4.29,0-7.7-1.27-10.26-3.83s-3.84-6-3.84-10.26V14.1q0-6.42,3.84-10.26C735.2,1.28,738.61,0,742.9,0h52.94q6.42,0,10.26,3.84t3.84,10.26V120.61q0,6.42-3.84,10.26t-10.26,3.83H783.47a6.69,6.69,0,0,1-7.05-7V35.09a6.67,6.67,0,0,0-2-5,7.83,7.83,0,0,0-10.18,0,6.64,6.64,0,0,0-2,5v92.57a6.71,6.71,0,0,1-7.05,7Z"/><path class="cls-1" d="M860.84,52.47a6.72,6.72,0,0,0,7,7.05h26.47q6.42,0,10.26,3.84t3.84,10.26v47q0,6.42-3.84,10.26t-10.26,3.83H841.42c-4.29,0-7.7-1.27-10.26-3.83s-3.84-6-3.84-10.26V94.76a7.31,7.31,0,0,1,7.83-7.83H853a7.29,7.29,0,0,1,7.83,7.83v4.7a7.05,7.05,0,1,0,14.1,0V82.39a6.72,6.72,0,0,0-7.05-7H841.42c-4.29,0-7.7-1.28-10.26-3.84s-3.84-6-3.84-10.26V14.1q0-6.42,3.84-10.26c2.56-2.56,6-3.84,10.26-3.84h52.94q6.42,0,10.26,3.84t3.84,10.26V39.94a7.29,7.29,0,0,1-7.83,7.83H882.77a7.28,7.28,0,0,1-7.83-7.83V35.09a6.47,6.47,0,0,0-6.89-6.9,7.26,7.26,0,0,0-5.25,1.88,6.64,6.64,0,0,0-2,5Z"/></g></g></svg>