<svg xmlns="http://www.w3.org/2000/svg" viewBox="0 0 791.29 133.5"><defs><style>.cls-1{fill:#fff;}</style></defs><g id="Layer_2" data-name="Layer 2"><g id="Layer_7" data-name="Layer 7"><path class="cls-1" d="M746.79,122.66c-28.52,0-49.06-24-49.06-46.78l.57-33.09h61.61V32H698.3V10.84h81V0H677.19c-29.67,0-57.62,8.56-57.62,38.22s44.5,44.5,44.5,65c0,10.27-6.28,19.4-19.4,19.4H587.05a31,31,0,0,0,6.85-19.4c0-14.26-12-24.53-23.39-34.23-5.14-5.13-10.84-9.7-15.41-15.4-4-4.57-6.27-9.7-6.27-15.41,0-22.25,23.39-27.38,46.78-27.38h1.14V0h-1.14C565.94,0,538,8.56,538,38.22c0,14.27,10.84,25.68,22.25,36,5.13,5.13,10.27,9.13,15.4,14.26,4,5.13,6.85,9.7,6.85,14.83,0,10.27-6.28,19.4-19.4,19.4H513.46L477.52,0H465L429,122.66H352L351.43,0H340.59V93l-1.14,1.72c-12.55,16.54-30.23,27.38-53.05,27.38-34.81,0-55.34-28-55.34-54.77,0-30.81,22.25-56.48,59.9-56.48h1.14V0H291c-45.07,0-71.31,32-71.31,67.32,0,20.54,10.26,42.79,29.66,55.34H174.58c-28.53,0-48.5-24-48.5-46.78l.57-33.09h61.62V32H126.65V10.84h80.44V0H115.24V75.88c0,17.11,9.7,35.94,25.11,46.78H70.74c21.11-12.55,32.52-34.8,32.52-55.91C103.26,33.09,74.74,0,32,0H12V10.84H33.66V122.66H0V133.5H286.4c21.1,0,38.79-9.13,54.19-22.82V133.5h97l8-28h51.91l8,28h139.2c17.12,0,30.81-13.12,30.81-30.24,0-27.95-45.07-41.07-45.07-65,0-22.25,23.39-27.38,46.78-27.38h10.27l-.57,65c0,32,29.1,57.62,59.9,57.62h44.5V122.66ZM45.07,12.55c29.1,5.71,47.35,29.67,47.35,54.2S74.17,115.24,45.07,121ZM448.42,94.71l22.82-78.16,22.82,78.16Z"/></g></g></svg>