<svg xmlns="http://www.w3.org/2000/svg" viewBox="0 0 622.07 104.91"><defs><style>.cls-1{fill:#fff;}</style></defs><g id="Layer_2" data-name="Layer 2"><g id="Layer_7" data-name="Layer 7"><path class="cls-1" d="M200.76,59.07V0H107.48V104.91h27.08V29.65h39.12V45.1a9.18,9.18,0,0,1-9.18,9.18H140.15V80.62l24.06,24.29h39.06L179.21,80.62A21.55,21.55,0,0,0,200.76,59.07Z"/><path class="cls-1" d="M497.09,0H439.27A16.87,16.87,0,0,0,422.4,16.88V88a16.87,16.87,0,0,0,16.87,16.87h57.82A16.87,16.87,0,0,0,514,88V16.88A16.88,16.88,0,0,0,497.09,0ZM486.71,73.21a2,2,0,0,1-2,2.05H454a4.33,4.33,0,0,1-4.33-4.33V31.7a2.05,2.05,0,0,1,2.05-2.05h33a2.05,2.05,0,0,1,2,2.05Z"/><polygon class="cls-1" points="594.82 0 594.82 53.69 554.16 0 526.91 0 526.91 104.92 554.16 104.92 554.16 51.23 594.82 104.92 622.07 104.92 622.07 0 594.82 0"/><path class="cls-1" d="M319.08,83.08a21.83,21.83,0,0,0,21.84,21.83h67.34V35L366,59.9l15.14,3.42V75.26H355.28a9.12,9.12,0,0,1-9.12-9.12V29.65h62.1V0H319.08Z"/><path class="cls-1" d="M214.45,25.46v79.45h27.08V84h36.32v20.89h27.09V0h-65A25.46,25.46,0,0,0,214.45,25.46Zm33.92,4.19h29.48v31H241.53V36.49A6.84,6.84,0,0,1,248.37,29.65Z"/><path class="cls-1" d="M70.42,0H0V104.91H70.42A19.44,19.44,0,0,0,89.86,85.47v-66A19.44,19.44,0,0,0,70.42,0Zm-9.3,66.71a8.54,8.54,0,0,1-8.55,8.55H27.08V29.65H52.57a8.55,8.55,0,0,1,8.55,8.55Z"/></g></g></svg>