<svg xmlns="http://www.w3.org/2000/svg" viewBox="0 0 948 381"><defs><style>.cls-1{fill:#fff;}.cls-2{fill:none;}</style></defs><g id="Layer_2" data-name="Layer 2"><g id="Layer_1-2" data-name="Layer 1"><path class="cls-1" d="M148.83,44.71,173.63,61,141.9,77.3H83.34L67.49,151.9H99.57l-6.93,32.59H60.56L36,300.08,11.51,331.4.09,300.08,54.37,44.71Z"/><path class="cls-1" d="M173.33,214.53l3.2,85.55L160,331.4l-19.32-31.32-3.2-85.55h-2.55l-14.66,69H84.32l40.59-191H197c13.75,0,21,9.17,18,22.92l-17,80c-2.43,11.45-11.7,19.09-23.15,19.09Zm-19.45-89.37-12.07,56.78h20.37a3.28,3.28,0,0,0,3.4-2.8L176.45,128c.38-1.78-.42-2.8-2.2-2.8Z"/><path class="cls-1" d="M331.14,92.57l-40.59,191h-35.9L262,249.16H239.8l-7.3,34.37H196.6l35.72-168c2.92-13.75,14-22.92,27.78-22.92Zm-84.41,124h22.15l19.43-91.41H269.22a3.82,3.82,0,0,0-3.71,3.06Z"/><path class="cls-1" d="M430.69,92.57l-6.93,32.59H375.9a3.82,3.82,0,0,0-3.71,3.06L346.75,247.89a2.33,2.33,0,0,0,2.41,3.05H397l-6.93,32.59H326.19c-13.75,0-21-9.16-18-22.91L339,115.49c2.92-13.75,14-22.92,27.78-22.92Z"/><path class="cls-1" d="M509.56,125.16H491L457.31,283.53h-35.9l33.67-158.37H436.49l6.93-32.59h73.07Z"/><path class="cls-1" d="M553.61,250.94,590.79,76l24.73-31.31L626.69,76,582.58,283.53h-71c-13.75,0-21-9.16-18-22.91l35.72-168h35.9l-33,155.32a2.33,2.33,0,0,0,2.41,3.05Z"/><path class="cls-1" d="M685.85,214.53h-1.53l2.65,69h-35.9l-2.65-69h-2.55l-14.66,69h-35.9l40.59-191H708c13.75,0,21,9.17,18,22.92l-17,80C706.57,206.89,697.3,214.53,685.85,214.53Zm-9.29-35.39L687.44,128c.38-1.78-.42-2.8-2.2-2.8H664.87L652.8,181.94h20.37A3.26,3.26,0,0,0,676.56,179.14Z"/><path class="cls-1" d="M743.6,92.57h62.63l-6.93,32.59H772.57l-15,70.53H778.2l-6.92,32.59H750.65l-15,70.53h85.8l24.8,16.29-31.72,16.3H692.83Z"/><path class="cls-1" d="M778.37,283.53,819,92.57H891c13.75,0,21,9.17,18,22.92L878.21,260.62c-2.92,13.75-14,22.91-27.78,22.91Zm69.57-158.37L821.2,250.94h20.11a3.81,3.81,0,0,0,3.71-3.05l25.44-119.67a2.34,2.34,0,0,0-2.41-3.06Z"/><rect class="cls-2" width="948" height="381"/></g></g></svg>