<svg xmlns="http://www.w3.org/2000/svg" viewBox="0 0 735.83 231.13"><defs><style>.cls-1{fill:#fff;}</style></defs><g id="Layer_2" data-name="Layer 2"><g id="Layer_1-2" data-name="Layer 1"><polygon class="cls-1" points="0 98.06 10.23 98.06 10.23 52.67 50.15 52.67 50.15 42.58 10.23 42.58 10.23 10.22 61.63 10.22 61.63 0 0 0 0 98.06"/><polygon class="cls-1" points="92.87 38.46 92.87 28.02 82.65 28.02 82.65 98.06 92.87 98.06 92.87 51.12 110.38 38.24 126.07 38.24 126.07 28.02 107.16 28.02 92.87 38.46"/><path class="cls-1" d="M213.9,88.39l-6.3-8.26-10.09,7.7H172.58l-8.13-6V68.08h50V39.22L199.61,28H169.08l-14.85,11.2V86.85l14.85,11.21H201ZM164.45,44.27l8.13-6h23.53l8.13,6V58H164.45V44.27Z"/><rect class="cls-1" x="244.72" y="28.02" width="10.09" height="70.04"/><rect class="cls-1" x="244.44" width="10.09" height="15.41"/><polygon class="cls-1" points="329.46 87.83 300.47 87.83 290.38 80.13 284.22 88.39 297.11 98.06 332.97 98.06 347.82 86.85 347.82 69.2 332.97 57.99 303.13 57.99 295 51.83 295 44.27 303.13 38.24 332.13 38.24 342.21 45.95 348.38 37.68 335.49 28.02 299.63 28.02 284.78 39.22 284.78 56.87 299.63 68.08 329.46 68.08 337.59 74.24 337.59 81.81 329.46 87.83"/><rect class="cls-1" x="377.79" width="10.09" height="15.41"/><rect class="cls-1" x="378.07" y="28.02" width="10.09" height="70.04"/><polygon class="cls-1" points="481.17 98.06 481.17 39.22 466.32 28.02 442.65 28.02 428.36 38.46 428.36 28.02 418.13 28.02 418.13 98.06 428.36 98.06 428.36 51.12 445.87 38.24 462.82 38.24 470.94 44.27 470.94 98.06 481.17 98.06"/><path class="cls-1" d="M560.75,33.74,553.17,28H525.43l-14.84,11.2V66.68l8.16,6.16L510.59,79V91.89l8.17,6.17-8.17,6.16v17.65l14.84,11.21h35.44l14.85-11.21V104.22L560.87,93H528.94l-8.13-6.16v-2.8l8.13-6.17h24.23L568,66.68V40.76l2.52-2.52h5.18V28h-9.24Zm4.75,75.52v7.57l-8.13,6H528.94l-8.13-6v-7.57L529,103.1h28.34Zm-7.71-47.63-8.12,6.17H528.94l-8.13-6.17V44.27l8.13-6h20.73l8.12,6V61.63Z"/><path class="cls-1" d="M617.61,28l-14.85,11.2V86.85l14.85,11.21h31.93l12.89-9.67-6.3-8.26L646,87.83H621.11l-8.13-6V68.08h50V39.22L648.14,28Zm35.16,30H613V44.27l8.13-6h23.53l8.13,6Z"/><polygon class="cls-1" points="716.92 28.02 702.63 38.46 702.63 28.02 692.41 28.02 692.41 98.06 702.63 98.06 702.63 51.12 720.14 38.24 735.83 38.24 735.83 28.02 716.92 28.02"/><polygon class="cls-1" points="207.31 177.06 199.19 170.9 199.19 149.32 207.31 143.3 242.06 143.3 252.14 151 258.44 142.74 245.56 133.07 203.81 133.07 188.97 144.28 188.97 175.94 203.81 187.15 240.65 187.15 248.78 193.31 248.78 214.88 240.65 220.91 205.91 220.91 195.83 213.2 189.53 221.47 202.41 231.13 244.16 231.13 259 219.93 259 188.27 244.16 177.06 207.31 177.06"/><path class="cls-1" d="M351.46,218.38V172.3l-14.85-11.21H303.27l-12.89,9.67,6.31,8.26,10.08-7.7h26.34l8.12,6v11.07h-38l-14.85,11.2v20.31l14.85,11.21h33.34l7.58-5.72,5.73,5.72h8.54V220.91H354Zm-18.35,2.53H306.77l-8.12-6V204.66l8.12-6h34.46v16.25Z"/><polygon class="cls-1" points="412.39 161.09 398.1 171.54 398.1 161.09 387.88 161.09 387.88 231.13 398.1 231.13 398.1 184.2 415.61 171.32 432.56 171.32 440.69 177.34 440.69 231.13 450.91 231.13 450.91 172.3 436.07 161.09 412.39 161.09"/><polygon class="cls-1" points="498.68 171.32 527.68 171.32 537.76 179.02 543.93 170.76 531.04 161.09 495.18 161.09 480.33 172.3 480.33 189.95 495.18 201.15 525.02 201.15 533.14 207.32 533.14 214.88 525.02 220.91 496.02 220.91 485.93 213.2 479.77 221.47 492.66 231.13 528.52 231.13 543.37 219.93 543.37 202.28 528.52 191.07 498.68 191.07 490.56 184.91 490.56 177.34 498.68 171.32"/></g></g></svg>