<svg xmlns="http://www.w3.org/2000/svg" viewBox="0 0 611.25 264.6"><defs><style>.cls-1{fill:#fff;}</style></defs><g id="Layer_2" data-name="Layer 2"><g id="Layer_7" data-name="Layer 7"><path class="cls-1" d="M0,2.76,58.67,1.31l1.74,38.34-16,.29-.58-7-1.74-3.78-4.07-.87H29.92l.29,19.75,19.17,1.16L47.92,69.85l-18,1.75.29,20,.58,3.48,2.9,1.74h4.36v22.66H.29l.29-16.27H3.49L6.1,101.8,9,83.5,7.26,28.9l-.87-3.49-2.9-.87-3.2-.29Z"/><path class="cls-1" d="M107.46,116.32l-.14-24.39L111,87.72V85l-1.74-1.31-4.36-13.07H98.9V88.73l.87,4.79,1.89,1,1.88.15-.29,24.83H67.82L69.13,95l4.21-.15,2.18-1.45.58-4.94V39.65l-.58-7.12-2.76-1.31H69.42L69,1.74,108.34,0l22.22,10.75,5.37,23.38a34.83,34.83,0,0,1-1.38,12.41,26,26,0,0,1-4,7.77,17.72,17.72,0,0,1-6,5.23L134.33,88l6.54,6.53v21.78ZM99,24.4,98.9,47.05h2.76l6.1-3.19,2.17-9-3.19-8.56Z"/><path class="cls-1" d="M206.22,6l6.24,10.46,4.07,32.68L213,94.4l-18.29,23.23-19.9,4.5-16-8L144.64,70.43,146,40.37l14.67-29.19,17.86-11ZM183.85,103.4l2.76-16.7,1-39.36-3.34-25.41L176,33.69l-2.76,24.69.58,20.19,4.51,23.67Z"/><path class="cls-1" d="M264.6,2.47,291,87.86V28.17l-1.6-5.37-5.37-2L282,.44,322.69,1l-2.47,20.33-3.48,1.45-3.93-.14.59,13.06.29,33.55-3.78,50.25H280.72L267.94,94.25,253.71,41.53l.58,56.21,3,3.05,4.21-.29.15,21.92-35.58-.58-1.46-24.39,3.92.29,2.33-2.91,1.45-6.1.58-60.27L230.33,25,227,24.25l-.87-22.94Z"/><path class="cls-1" d="M400.53,42.12H383.68L381.5,28.46l-4.35-1.59-2.62-.15V88.59l.58,5.22,2.62,1.31,4.36-.29v24.69l-38.2-3.2V94.83h4.79l2.62-1.31.58-3.63V31.51h-2.76l-4.65,1.31-1.89,14.23H330.24L330.1,1.6,397.48,0Z"/><path class="cls-1" d="M449.9,1.45V23.24h-4.64l-5.67,1.3L439,28.9V91.49l.73,4.94,3.05,1h4.36v22.07H407.64V97.45l5.81-.15,1.89-1.45.44-3.2.14-63.75-.87-4.36-2.47-1.3-3.19-.44L407.64,1.31Z"/><path class="cls-1" d="M461.52.73l64.92.58.14,38.34-17.72-1.46-1-7-4.94-5.37L492,25.7V50.25l15.83,1.16,1.45,20-16.56,2.61,1.46,26.73,6.1.58,4.5-3.92.58-7.41,19.31.87,1,28.61H462.39L463,94.4l4.65-1.75,2.32-3.48-.43-59.4-1.45-7L463,21.06Z"/><path class="cls-1" d="M577.84,116.32l-.14-24.39,3.63-4.21V85l-1.74-1.31-4.36-13.07h-6V88.73l.87,4.79,1.89,1,1.88.15-.29,24.83H538.2L539.51,95l4.21-.15,2.18-1.45.58-4.94V39.65l-.58-7.12-2.76-1.31H539.8l-.44-29.48L578.72,0l22.22,10.75,5.37,23.38a34.83,34.83,0,0,1-1.38,12.41,26,26,0,0,1-4,7.77,17.72,17.72,0,0,1-6,5.23L604.71,88l6.54,6.53v21.78ZM569.42,24.4l-.14,22.65H572l6.1-3.19,2.17-9-3.19-8.56Z"/><path class="cls-1" d="M43.57,141,63,149.58l14.23,14.23-1.74,38.78L55.77,219.72,38.34,221l-.44,5.81,1.75,14.52,3.05,1.74,4.64-1.16L46,262.56l-37.76.88.29-24h4.06l3-2,1.75-68-4.94-1.89-7.12-1.16-.43-24.55Zm-2.91,54.46,9-3.05,2.76-14.08-4.07-7.7-8.71-1.31v7.55Z"/><path class="cls-1" d="M164.39,142.47v21.78h-3.48l-2.33,1.31-1,4.79-1.31,51.26L151.76,248,128.81,264.6l-30.2-17.14-5.52-31.8.14-43.57-.87-5.23-1.89-1.16H86.26V143.77h36.89V166h-3.34l-2.61.73-.88,2.61V204l1.17,24.4,9.87,10.31,6.1-4.21L136.8,217l-1.31-47.19-.72-4.21L132,164.1h-3.63V142.47Z"/><path class="cls-1" d="M210,257.05l-.15-24.4,3.63-4.21v-2.76l-1.74-1.31-4.36-13.07h-5.95v18.15l.87,4.8,1.89,1,1.88.15-.29,24.83H170.35l1.31-24.54,4.21-.15,2.18-1.45.58-4.94V180.37l-.58-7.12-2.76-1.31H172l-.44-29.47,39.36-1.75,22.22,10.75,5.37,23.38a34.92,34.92,0,0,1-1.38,12.42,26.06,26.06,0,0,1-4,7.77,17.8,17.8,0,0,1-6,5.22l9.73,28.47,6.54,6.53v21.79Zm-8.43-91.93-.14,22.65h2.76l6.1-3.19,2.17-9L209.27,167Z"/><path class="cls-1" d="M307.29,148.71l7.12,28-24.4-.58,1.75-4.51-1.17-5.08-7.4-2.18-3.2,1.75-2.61,7L279.7,183l14.23,4.5L308.31,199l6.1,22.8-5.66,24.83-26.87,15.1-24.4-8.42-8.27-26h24.25l6.82,9.87,6.68-2.32,2.62-4.36-7.12-10.89-15-7.84-10.74-11.19-6-22.07,6.39-25.41,28.32-12.49Z"/><path class="cls-1" d="M399.66,142.47v21.78h-3.49l-2.32,1.31-1,4.79-1.3,51.26L387,248,364.08,264.6l-30.21-17.14-5.52-31.8.15-43.57-.87-5.23-1.89-1.16h-4.21V143.77h36.88V166h-3.34l-2.61.73-.87,2.61V204l1.16,24.4,9.88,10.31,6.09-4.21L372.07,217l-1.31-47.19-.73-4.21-2.76-1.46h-3.63V142.47Z"/><path class="cls-1" d="M453.54,142.17V164h-4.65l-5.67,1.31-.58,4.35v62.59l.73,4.94,3.05,1h4.36v22.07H411.27V238.17l5.81-.15,1.89-1.45.44-3.2.14-63.75-.87-4.35L416.21,164l-3.19-.44L411.27,142Z"/><path class="cls-1" d="M535.58,182.84H518.74l-2.18-13.65-4.36-1.6-2.61-.15v61.87l.58,5.23,2.61,1.3,4.36-.29v24.69L479,257.05v-21.5h4.79l2.61-1.3.58-3.63V172.24h-2.75l-4.65,1.3-1.89,14.23H465.3l-.15-45.45,67.39-1.6Z"/><path class="cls-1" d="M599.19,148.71l7.12,28-24.4-.58,1.74-4.51-1.16-5.08-7.41-2.18-3.19,1.75-2.61,7L571.6,183l14.23,4.5L600.21,199l6.1,22.8-5.67,24.83-26.86,15.1-24.4-8.42-8.28-26h24.25l6.83,9.87,6.68-2.32,2.61-4.36-7.11-10.89-15-7.84-10.75-11.19-5.95-22.07,6.39-25.41,28.32-12.49Z"/></g></g></svg>