<svg xmlns="http://www.w3.org/2000/svg" viewBox="0 0 506.92 115.87"><defs><style>.cls-1{fill:#fff;}</style></defs><g id="Layer_2" data-name="Layer 2"><g id="Layer_7" data-name="Layer 7"><path class="cls-1" d="M0,7.24H7.24V0H43.45V7.24h7.24V29H36.21V14.48H14.48V72.42H36.21V57.93H29V43.45H50.69V79.66H43.45V86.9H7.24V79.66H0Z"/><path class="cls-1" d="M65.18,29h7.24V21.73h36.21V29h7.24V79.66h-7.24V86.9H72.42V79.66H65.18ZM79.66,72.42h21.73V36.21H79.66Z"/><path class="cls-1" d="M130.35,79.66V21.73h14.49V72.42h21.72V21.73h14.49V79.66H173.8V86.9H137.59V79.66Z"/><path class="cls-1" d="M195.53,21.73H239V29h7.24V43.45H231.74V36.21H210V86.9H195.53Z"/><path class="cls-1" d="M260.7,57.93H268V50.69h29V36.21H275.19v7.24H260.7V29H268V21.73h36.2V29h7.25V86.9H268V79.66H260.7Zm36.21,14.49V57.93H275.19V72.42Z"/><path class="cls-1" d="M325.88,21.73h43.45V29h7.24V86.9H362.09V36.21H340.36V86.9H325.88Z"/><path class="cls-1" d="M391.06,29h7.24V21.73h36.21V29h7.24v79.66h-7.24v7.24H398.3v-7.24h-7.24V94.14h14.48v7.25h21.73V86.9h-29V79.66h-7.24Zm36.21,43.45V36.21H405.54V72.42Z"/><path class="cls-1" d="M456.23,57.93h7.24V50.69h29V36.21H470.72v7.24H456.23V29h7.24V21.73h36.21V29h7.24V86.9H463.47V79.66h-7.24Zm36.21,14.49V57.93H470.72V72.42Z"/></g></g></svg>