<svg xmlns="http://www.w3.org/2000/svg" viewBox="0 0 694.36 143.06"><defs><style>.cls-1{fill:#fff;}</style></defs><g id="Layer_2" data-name="Layer 2"><g id="Layer_7" data-name="Layer 7"><path class="cls-1" d="M57.23,114.45H42.92V57.23H14.31v57.22H0V0H14.31V42.92H42.92V0H57.23Z"/><path class="cls-1" d="M128.83,57.23v14.3h-7.15V85.84H85.91v14.3h35.77v14.31H78.76V100.14H71.6V57.23h7.16V42.92h42.92V57.23Zm-14.31,14.3V57.23H85.91v14.3Z"/><path class="cls-1" d="M143.21,100.14V85.84h7.15V71.53h35.77V57.23H150.36V42.92h42.92V57.23h7.15v57.22H150.36V100.14Zm14.3-14.3v14.3h28.62V85.84Z"/><path class="cls-1" d="M221.89,100.22h-7.15V57.3h7.15V42.92h35.84V0H272V114.38H221.89Zm35.77-43H229.05v42.91h28.61Z"/><path class="cls-1" d="M307.8,14.31H286.34V0h57.23V14.31H322.11V114.45H307.8Z"/><path class="cls-1" d="M400.87,42.92h14.3v93H408v7.15H365v-14.3h35.84V114.45H365.1V100.14H358V42.92h14.3v57.22h28.62Z"/><path class="cls-1" d="M486.7,57.23v42.91h-7.15v14.31H443.79v28.61H429.48V42.92h50.07V57.23Zm-14.3,42.91V57.23H443.86v42.91Z"/><path class="cls-1" d="M558.38,57.23v14.3h-7.15V85.84H515.46v14.3h35.77v14.31H508.31V100.14h-7.16V57.23h7.16V42.92h42.92V57.23Zm-14.31,14.3V57.23H515.46v14.3Z"/><path class="cls-1" d="M665.75,85.91v14.31h28.61v14.3H644.22v-14.3h7.15V85.91h7.15V71.6h7.23V57.23h7.15V42.92h7.16V14.31H658.52v14.3h-14.3V14.31h7.15V0h35.84V14.31h7.15V42.92h-7.15V57.23h-7.15V71.6H672.9V85.91Z"/></g></g></svg>