<svg xmlns="http://www.w3.org/2000/svg" viewBox="0 0 921.14 121.04"><defs><style>.cls-1{fill:#fff;}</style></defs><g id="Layer_2" data-name="Layer 2"><g id="Layer_7" data-name="Layer 7"><path class="cls-1" d="M77,34.58a4.8,4.8,0,0,1,5.19,5.19v76.09A4.79,4.79,0,0,1,77,121H50.15A4.78,4.78,0,0,1,45,115.86V54.47a2.29,2.29,0,0,0-2.59-2.59H5.19a5.11,5.11,0,0,1-3.81-1.39A5.14,5.14,0,0,1,0,46.69V39.77A5.14,5.14,0,0,1,1.38,36a5.15,5.15,0,0,1,3.81-1.39ZM45.13,5.19a5.13,5.13,0,0,1,1.39-3.81A5.12,5.12,0,0,1,50.32,0H77a5.14,5.14,0,0,1,3.8,1.38,5.13,5.13,0,0,1,1.39,3.81V15.56a5.11,5.11,0,0,1-1.39,3.81A5.14,5.14,0,0,1,77,20.75H50.32a5.12,5.12,0,0,1-3.8-1.38,5.11,5.11,0,0,1-1.39-3.81Z"/><path class="cls-1" d="M190.39,34.58a4.79,4.79,0,0,1,5.18,5.19v76.09a4.78,4.78,0,0,1-5.18,5.18H185.2a4.78,4.78,0,0,1-5.19-5.18V54.47a2.29,2.29,0,0,0-2.59-2.59H137.64a2.29,2.29,0,0,0-2.59,2.59v61.39a4.78,4.78,0,0,1-5.19,5.18h-26.8a4.79,4.79,0,0,1-5.19-5.18V39.77a4.8,4.8,0,0,1,5.19-5.19Z"/><path class="cls-1" d="M211.31,39.77a4.79,4.79,0,0,1,5.19-5.19h26.8a4.8,4.8,0,0,1,5.19,5.19v61.39a2.29,2.29,0,0,0,2.59,2.59h39.77a2.29,2.29,0,0,0,2.6-2.59V39.77a4.79,4.79,0,0,1,5.18-5.19h5.19A4.79,4.79,0,0,1,309,39.77v76.09a4.78,4.78,0,0,1-5.19,5.18H216.5a4.78,4.78,0,0,1-5.19-5.18Z"/><path class="cls-1" d="M329.93,121a4.79,4.79,0,0,1-5.19-5.18V39.77a4.8,4.8,0,0,1,5.19-5.19h87.33a4.79,4.79,0,0,1,5.18,5.19V79.54a4.78,4.78,0,0,1-5.18,5.19H364.51a2.3,2.3,0,0,0-2.59,2.6v13.83a2.29,2.29,0,0,0,2.59,2.59h52.75a4.79,4.79,0,0,1,5.18,5.19v6.92a4.78,4.78,0,0,1-5.18,5.18Zm74.36-51.87a2.29,2.29,0,0,0,2.59-2.6V54.47a2.29,2.29,0,0,0-2.59-2.59H364.51a2.29,2.29,0,0,0-2.59,2.59v12.1a2.3,2.3,0,0,0,2.59,2.6Z"/><path class="cls-1" d="M443.37,121a4.78,4.78,0,0,1-5.19-5.18V5.19a5.16,5.16,0,0,1,1.38-3.81A5.15,5.15,0,0,1,443.37,0h26.8A5.14,5.14,0,0,1,474,1.38a5.17,5.17,0,0,1,1.39,3.81V32A2.29,2.29,0,0,0,478,34.58h52.74a4.8,4.8,0,0,1,5.19,5.19v6.92a4.8,4.8,0,0,1-5.19,5.19H478a2.29,2.29,0,0,0-2.59,2.59v46.69a2.29,2.29,0,0,0,2.59,2.59h52.74a4.8,4.8,0,0,1,5.19,5.19v6.92a4.79,4.79,0,0,1-5.19,5.18Z"/><path class="cls-1" d="M556.8,121a4.79,4.79,0,0,1-5.19-5.18V39.77a4.8,4.8,0,0,1,5.19-5.19h87.33a4.79,4.79,0,0,1,5.18,5.19V79.54a4.78,4.78,0,0,1-5.18,5.19H591.38a2.29,2.29,0,0,0-2.59,2.6v13.83a2.29,2.29,0,0,0,2.59,2.59h52.75a4.79,4.79,0,0,1,5.18,5.19v6.92a4.78,4.78,0,0,1-5.18,5.18Zm74.36-51.87a2.29,2.29,0,0,0,2.59-2.6V54.47a2.29,2.29,0,0,0-2.59-2.59H591.38a2.29,2.29,0,0,0-2.59,2.59v12.1a2.29,2.29,0,0,0,2.59,2.6Z"/><path class="cls-1" d="M757.56,34.58a4.8,4.8,0,0,1,5.19,5.19V72.63a4.79,4.79,0,0,1-5.19,5.18h-5.19a4.78,4.78,0,0,1-5.18-5.18V54.47a2.29,2.29,0,0,0-2.6-2.59H704.82a2.29,2.29,0,0,0-2.59,2.59v61.39A4.79,4.79,0,0,1,697,121h-26.8a4.78,4.78,0,0,1-5.19-5.18V39.77a4.79,4.79,0,0,1,5.19-5.19Z"/><path class="cls-1" d="M876.18,51.88v64A4.78,4.78,0,0,1,871,121H783.67a4.79,4.79,0,0,1-5.19-5.18V39.77a4.8,4.8,0,0,1,5.19-5.19H916a4.79,4.79,0,0,1,5.18,5.19v6.92A4.79,4.79,0,0,1,916,51.88ZM858,103.75a2.29,2.29,0,0,0,2.59-2.59V54.47A2.29,2.29,0,0,0,858,51.88H818.25a2.29,2.29,0,0,0-2.59,2.59v46.69a2.29,2.29,0,0,0,2.59,2.59Z"/></g></g></svg>