<?xml version="1.0" encoding="utf-8"?>
<!-- Generator: Adobe Illustrator 26.0.0, SVG Export Plug-In . SVG Version: 6.00 Build 0)  -->
<svg version="1.1" id="Layer_1" xmlns="http://www.w3.org/2000/svg" xmlns:xlink="http://www.w3.org/1999/xlink" x="0px" y="0px"
	 viewBox="0 0 1002.1 86.2" style="enable-background:new 0 0 1002.1 86.2;" xml:space="preserve">
<style type="text/css">
	.st0{fill:#FFFFFF;}
</style>
<g id="Layer_2_00000046307147527988077050000012787199040387666823_">
	<g id="Layer_7">
		<path class="st0" d="M57.8,0l-5.7,22.7H15.9L21.5,0H57.8z M36.3,86.2H0l14.2-56.8h36.3L36.3,86.2z"/>
		<path class="st0" d="M192.7,0l-5.6,22.7H64.5L70.2,0H192.7z M62.8,29.4h36.3L85,86.2H48.7L62.8,29.4z M149.1,29.4h36.3l-14.2,56.8
			h-36.3L149.1,29.4z"/>
		<path class="st0" d="M235.7,22.7h-54.8L186.6,0h54.8L235.7,22.7z M320.3,29.4l-14.2,56.8H183.6l14.2-56.8h36.3l-8.5,34.1h49.9
			l8.5-34.1L320.3,29.4z M322,22.7h-36.4L291.3,0h36.3L322,22.7z"/>
		<path class="st0" d="M339.9,0h122.6l-5.6,22.7H334.3L339.9,0z M455.2,29.4l-5.7,22.8h-86.2l-2.8,11.3h86.2L441,86.2H318.4
			l14.2-56.8H455.2z"/>
		<path class="st0" d="M597.4,0l-5.7,22.7H469.2L474.8,0H597.4z M496.4,86.2l14.2-56.8h36.3l-14.2,56.8H496.4z"/>
		<g>
			<polygon class="st0" points="719.3,52.2 725,29.4 602.4,29.4 588.2,86.2 710.8,86.2 716.4,63.6 630.2,63.6 633,52.2 			"/>
			<polygon class="st0" points="609.7,0 604.1,22.7 861.5,22.7 867.1,0 			"/>
			<polygon class="st0" points="723.1,86.2 759.4,86.2 767.9,52.2 804.9,86.2 845.7,86.2 808.8,52.2 854.1,52.2 859.8,29.4 
				737.3,29.4 			"/>
		</g>
		<path class="st0" d="M879.5,0h122.6l-5.7,22.7H873.8L879.5,0z M958.4,29.4h36.3l-14.2,56.8H858l14.2-56.8h36.3L900,63.6h49.9
			L958.4,29.4z"/>
	</g>
</g>
</svg>
