<svg xmlns="http://www.w3.org/2000/svg" viewBox="0 0 557.27 92.88"><defs><style>.cls-1{fill:#fff;}</style></defs><g id="Layer_2" data-name="Layer 2"><g id="Layer_7" data-name="Layer 7"><path class="cls-1" d="M0,0H37.15V9.29H27.86V41.8h7.81L55.73,9.29H46.44V0H83.59V9.29H74.3l-23,37.15,23,37.15h9.29v9.29H46.44V83.59h9.29L35.67,51.08H27.86V83.59h9.29v9.29H0V83.59H9.29V9.29H0Z"/><path class="cls-1" d="M125.38,37.15l-4.64,4.65v4.64H102.16V37.15l9.29-9.29h46.44l9.29,9.29V92.88H148.6V88.24L144,92.88H111.45l-9.29-9.29V65l9.29-9.29H148.6V41.8L144,37.15Zm0,27.87-4.64,4.64V79l4.64,4.64H144L148.6,79V65Z"/><path class="cls-1" d="M213.62,32.51l4.64-4.65h32.51l9.29,9.29V55.73H241.48V41.8l-4.64-4.65H213.62V83.59h9.29v9.29H185.76V83.59H195V37.15h-9.28V27.86h27.86Z"/><path class="cls-1" d="M278.63,37.15l9.29-9.29h46.44l9.29,9.29V83.59l-9.29,9.29H287.92l-9.29-9.29Zm41.8,46.44L325.07,79V41.8l-4.64-4.65H301.85l-4.64,4.65V79l4.64,4.64Z"/><path class="cls-1" d="M362.23,0h27.86V83.59h9.29v9.29H362.23V83.59h9.28V9.29h-9.28Z"/><path class="cls-1" d="M418,27.86h27.86V83.59h9.29v9.29H418V83.59h9.29V37.15H418ZM427.24,0h18.57V18.58H427.24Z"/><path class="cls-1" d="M501.54,32.51l4.64-4.65h32.51L548,37.15V83.59h9.29v9.29H520.11V83.59h9.29V41.8l-4.64-4.65H501.54V83.59h9.29v9.29H473.68V83.59H483V37.15h-9.28V27.86h27.86Z"/></g></g></svg>