<svg xmlns="http://www.w3.org/2000/svg" viewBox="0 0 750.23 188.18"><defs><style>.cls-1{fill:#fff;}</style></defs><g id="Layer_2" data-name="Layer 2"><g id="Layer_7" data-name="Layer 7"><path class="cls-1" d="M0,136.91c0-.75,0-4.46.56-5v-.74l-.19-1.49v-.74c0-3.35-.37-7.06-.18-10.4V117.4l.55-2.6v-1.11c0-4.46.19-8.92.19-13.19l.37-.93L.56,97a36.37,36.37,0,0,1,.18-4.46c.19-4.46,0-9.85.37-14.3,0-.56.93-2.61.93-3,0-4.46-.55-9.1-.55-13.56,0-2.41.92-4.64.92-7.06,0-9.47-.92-19.13-.92-28.6V24.33l.37-.55H4.64l.19-.19c.19,0,.37,0,.37.19h.37l.37.18h.38l.74.19H7.8L8.17,24H10c1.67.75,2.6,2.42,4.09,3.16l.18.37c2.79,1.86,10,9.48,12.26,10,.19.38.38.56.38.93l8.17,7.06c.37.19,2.23,1.67,2.41,1.67.75,1.86,5,5.39,6.5,6,.56.55,3.91,3.9,4.46,4.08a1.61,1.61,0,0,0,.19-.92c0-5.39-.19-11-.19-16.35v-1.3l-.55-2.79v-1.3a4.15,4.15,0,0,1,.18-1.48l-.18-.19c0-2.79-.19-5.57-.19-8.36,0-1.67,3.72-1.67,5-1.67a2.51,2.51,0,0,1,1.67.37H55l1.12-.37h.56l.37-.19a10.3,10.3,0,0,1,3.34.37c1.67,2.42.56,3.53.56,5.95l.37.56c0,2.78-.37,5.38-.37,8.17,0,3.71.93,7.62.93,11.52,0,.93-.75,1.85-.37,2.6l-.38.74.56,1.3V55c0,4.27-.18,8.73-.18,13-.19.37-.75,1.11-.75,1.48,0,.93.37,2,.37,3.16l-.18.37a2.79,2.79,0,0,1,.37,1.68,33.4,33.4,0,0,1-.93,3.53,15.49,15.49,0,0,1,.56,4.08c0,6.32-.19,12.82-.19,19.13a1.21,1.21,0,0,1-.74.93h-.19a5.88,5.88,0,0,1,.56,2.61,17.85,17.85,0,0,1-.56,4.45v.19c0,.18-.18.37-.37.56a28.15,28.15,0,0,1,.37,5.57c0,1.67-.37,3.34-.37,4.83,0,.93,0,4.64.56,5.2v.56c0,.18-.19.37-.37.55-.19,2.23.37,5,.37,7.43,0,9.48.37,19.32,0,28.8l-.74.74h-.37l-.75-.37c-2.6-.19-5.57.37-8.17.37l-.37.19H48.3l-.37-.56v-.74c0-8.55.92-37.71-.38-41.06.93-.37.19-8.36.19-9.66a24.61,24.61,0,0,1,.37-5.2l-.18-.18v-.75l.18-.37v-.74l.19-.19v-.37l.18-.56v-.18c0-3-.55-5.76-.55-8.55V73.56c-.19,0-.19-.18-.38-.18L46.63,73a.67.67,0,0,0-.38-.18v-.19c-.92-1.48-2.23-2-3.34-3.16-1.86-1.85-3.9-3.34-5.76-5.2-.93-.93-2.23-2.78-3.34-3.71-1.3-.93-2.79-1.67-4.09-2.79-3.53-2.78-6.5-7.06-10-9.84-.74-.56-4.27-3.53-5.2-3.72a3.15,3.15,0,0,0-.56,1.86v.56l.19.18c.55,1.3.55,8.18.55,10.59a1.89,1.89,0,0,1-.55,1.67c0,1.67.74,3.9-.37,5.39V65l.18.37c-.18,2.23.74,4.64.74,6.87,0,3-.55,5.95-.55,8.92a52.62,52.62,0,0,1,.18,5.38,24.93,24.93,0,0,0-.74,3.53v.19l.56,1.11v.38l.18.37c0,3.34.19,9.84-.74,12.63.37.93.74,17.65-.37,21.55a10,10,0,0,1,.56,2.23v.18a22.59,22.59,0,0,0-.56,5c0,5.76.74,11.7.74,17.64,0,1.31-.18,2.61-.18,3.72a2.58,2.58,0,0,1-.38,1.11c.19,2.05.75,4.09.75,6.13,0,1.31,0,2.42-1.67,2.42h-.19l-.56-.19h-.37l-.18-.18H10.4l-.37-.19c-2.6,0-5.39-.18-8-.18l-.37-.19H1.49l-.93-.93v-.37L.37,162v-.37l.19-.37a.7.7,0,0,1,.18-.56l-.18-.37v-.93l-.37-1.67v-2.23l.55-2.6v-1.3c0-3.34-.18-13.19-.74-13.93Z"/><path class="cls-1" d="M102.91,158.08c-8.92-4.46-18.58-14.3-21.36-23.78-.56-1.67-3.53-6.31-3.16-8L78.2,126l.19-.38v-.37l-.56-1.11v-.19l-.18-.56v-.18a1.44,1.44,0,0,1,.18-.93c0-1.86-.74-3.9-.93-5.76-.18-3.53.19-7.43.19-11V104.4l-.37-2.05v-1.11c0-13.75.55-27.86.55-41.61V47l.56-1.12a5,5,0,0,1-.56-1.48c0-1.49.56-2.6.56-3.9,0-3.16-.18-6.32-.18-9.48,0-1.86.55-4.27.37-5.94a4.69,4.69,0,0,1,2.78-.56l.38-.19.37.19c2.41,0,5-.19,7.43-.19l.37-.18.37.56s5.57-.38,6.69-.38l.74.38h.74a19.54,19.54,0,0,1,5.76-.75c3.72,0,7.43.37,11.15.37.37,0,2.23.19,2.41-.18,1.3,0,2.6-.56,3.72-.56h1.3l2.41.37h1.86l1.12-.37h.55l.37.19c2.61,0,5.39.55,8,.55a12.64,12.64,0,0,0,2.6-.18c.56-.19,2.23,0,2.23.37s-.37.74-.56,1.11c.19.93-.74,2.23-.55,3.16l-.19.19a6.43,6.43,0,0,1-.74,1.67c-.19-.19-.37,0-.19.19-.93,1.67-.55,3.71-1.11,5l-.93.93s-.93,0-.74.19c-3.72.37-9.66,0-13.94,0H121.3l-2.42-.56h-1.67l-.37.18c-.37-.18-.93.38-1.3.38-5.39.37-11.14.37-16.35.37A8.65,8.65,0,0,1,96,36.78c-1.86.74-4.09.37-6,.37,0,.75-.37,1.49-.37,2.05,0,5.75.37,11.51.37,17.27,0,3-.56,6.13-.56,9.1,0,6.88.38,13.94.38,21l.55.56c4.46,0,19.69-.18,20.62.37a1.39,1.39,0,0,0,.93-.37h10.22l.56.37c.18.37-.93,2.05-1.12,2.42,0,.55-1.48,6.5-1.86,7.61a3.35,3.35,0,0,1-2.6,1.12,3.09,3.09,0,0,1-1.3-.19h-.18c-2.42,0-11.71.75-13,.56l-.37.19-.74-.19v-.19l-.74-.18c-1.3.93-8.92.74-10.41.74l-.74.37c.74,1.49,0,15.79.19,18.21.18,2.6,1.67,4.83,2.23,7.24a12.27,12.27,0,0,0,1.3,4.27l.37.38c1.48,2.78,2.6,5.94,4.83,7.8a4.85,4.85,0,0,1,1.67,1.67c-.19.19,0,.37.18.19v.37c.56.93,4.09,3.53,5.21,4.46.92.74,2.22.74,3.15,1.3H109a48,48,0,0,0,5.39,3.34,2.29,2.29,0,0,0,1.11-.19,12,12,0,0,0,3.53,1.49c1.67.37,12.26,2,13.93,2h.37a2.28,2.28,0,0,1,1.86-.55c.74,0,1.49.18,2,.18l1.49.37c.74,0,1.3.19,2,.19l.75.56.37.74c0,2.6,0,5.39.18,8a3.39,3.39,0,0,1-.37,1.86c-1.11.92-1.85,1.85-3.53,1.85C123.9,165.51,115.36,164.77,102.91,158.08Z"/><path class="cls-1" d="M257.83,1.11l-.37.38a13.57,13.57,0,0,1-2.23,2.41l-1.3.93h-.19a9.41,9.41,0,0,1-1.48,2.23v.37a36.82,36.82,0,0,0-2.6,6.32l-.56.55a14.52,14.52,0,0,1-.56,2.79c-.74,3.9-1.11,7.8-1.67,11.7l-.56.75c1.49,4.27-2.23,18.57-1.67,23.59l-.18.18a3.85,3.85,0,0,0-.56.93,19,19,0,0,0-.37,4.65c0,3,.18,10-1.12,12.81v.38l-.18.18v.93l.18,2v.93l-.18.19c0,1.67-.56,3.9-.75,5.76-.93,10.4-2.6,20.43-3.34,30.83l-.19.37c0,.56-.92,6.13-.92,7.06,0,3.35-.19,8.55-1.3,11.89v.56c.18.18.18.18.18.37l-.74,2.23c0,2.6-.56,5.2-.56,7.24V143l.19.37c0,2-.19,7.61-1.3,9.66.74,3.15-.38,2.78-.38,5.2a27.24,27.24,0,0,0,.38,3.9c0,.18,0,.18-.19.37v.93c-.19,0-.19.19-.19.37-1.67,2-7.05,1.12-9.84,1.12l-.37.18h-1.67c-1.68-.93-1.3-.74-2.42-2.23a24.09,24.09,0,0,0-.56-2.41c-2.41-6.13-3.34-13.19-6.31-18.95a5.26,5.26,0,0,1,.18-1.67l.19-.19c-.19-.18-1.3-1.11-1.12-1.3L211,138v-.19l-1.3-3.53s-2.42-8.73-3.16-10.58c.19-1.3-1.11-5.2-1.67-6.32v-.19a25.48,25.48,0,0,1-1.86-6.13l-.18-.18v-2.6c-1.31-1.86-1.31-3.34-2-5.57-.37,2.41-1.67,3.71-2.41,5.75.18.38.37,2.42,0,2.6l-7.62,24.15c-.56,1.68-2,7.25-2,7.43l-.37.75h-.19l-.37.37c-1.12,4.83-1.86,9.29-3.16,14.12-.18.74-1.49,4.83-1.49,5.2l-.18.37c-2.6,2-4.83,1.3-8.17,1.3h-4.28l-.18-.19-.56-.37c-.93-2-.93-4.08-1.3-6.13-1.3-8.36-1.49-17.09-2.6-25.63a22.92,22.92,0,0,1-.56-3.53,54.66,54.66,0,0,0,0-5.58,177.92,177.92,0,0,1-2.23-26.19V95.67c0-.38.37-2.42,0-2l-.55-.74c0-1.86-.38-3.9-.38-5.57,0-2.79-.18-5.39-.18-8.18l-.19-.37a1.74,1.74,0,0,0-.18-.93c-.19-.18-.93-11.33-.93-12.63,0-6.69-1.12-12.82-1.86-19.5-.37-4.09-.74-8.18-.74-12.26l-.37-1.12v-.93l.37-.55A33.67,33.67,0,0,0,157,24.89l.19-.56c.18,0,.18-.18.37-.18l.56-.37.18-.19h9.48l.55.56c.93,2,1.49,8.36,1.49,11a1.36,1.36,0,0,1-.37,1.11L170,37c-.19,0-.75.37-.75.55,0,.38.37.56.56.75a3.58,3.58,0,0,1,.56,2.41L170,41.8v.55l.37.37c.37.93.74,7.44.74,8.18l.19.18a34.8,34.8,0,0,1,.55,4.28v.55l-.37.38c0,1.11.74,2.22.74,3.52,0,3.16,1.86,32.88,2.79,34.19a1.36,1.36,0,0,1-.37.92c.74,1.68,2,18.39,2,20.81l.37.74v.37l.19.19v5.39c0,2.41,1.12,5,1.12,7.43A17.82,17.82,0,0,1,178,133c1.86-4.27,2.23-8.54,3.9-12.81V120l-.18-.37v-.37h.18c-.37-1.67,3.35-8.36,3.35-11.33l.18-.37c0-.38,1.49-3.91,1.68-4.46-.56-2,3.34-10.78,4.45-13.38.38-.74.75-3.53,1.12-3.9a20.56,20.56,0,0,1,2.23-6.5V79c.18.18.37,0,.18-.19a3.34,3.34,0,0,1,2.6-.74h1.12v.19c1.67-.19,1.48.55,3-.19a24.41,24.41,0,0,0,3.72-.19h1.3l1.11.56.56.93c-.56,5,6.87,21.18,6.87,27.12a8.33,8.33,0,0,0,1.12,2.23,19.69,19.69,0,0,0,.18,3.34c.93,1.86,2.23,3.9,2,5.95,1.48,2.78,3.9,11.51,3.9,13.19l.18.37c.56-2.79.74-12.82,1.86-14.68v-1.48c.37-.56.74-6.5.74-7.62.37-5.76,1.49-12.82,2.42-18.57.55-3.72,1.86-8.36,1.67-12.08.37-.37,2-18,2.23-19.69.18-2,1.11-4.09,1.3-5.94s0-3.91,0-5.76l.37-.93a43.6,43.6,0,0,1,1.3-9.85c.19-1.3,0-3.53.19-5,1.11-11.52,1.85-20.44,11.89-27.49h.37l1.11-.19h.37a17.88,17.88,0,0,1,8-2.23h.37l.75.37Z"/><path class="cls-1" d="M296.43,184.09c7.06-6.13,7.25-17.46,8.73-19.13a19.72,19.72,0,0,0,0-3.35,12.66,12.66,0,0,1,.75-1.86c.18-.92,2-12.44,2-13.37.37-4.46.93-8.73,1.3-13.19.19-2.23,0-4.64.37-6.69.56-3,1.12-3.16.74-6.31a7.64,7.64,0,0,1,.75-1.86l.18-.37a3.59,3.59,0,0,1-.37-1.49,22.23,22.23,0,0,1,1.12-5.94c.18-.37-.38-1.67-.38-2.42a21.35,21.35,0,0,0,.75-3.71c.18-2.05.18-4.09.18-6.13.19-2,2.42-14.31,1.86-15.23.19-.19.56-.56.56-.75,0-.37-.37-.93-.37-1.48,0-.93.93-2.6.74-3.35l.19-.18c.18-3.16.92-6.32,1.11-9.48l-.37-.93c-.19-3.34,1.11-8.54,1.67-12.07.37-2,4.27-28,5-29.54.92-1.67,1.85-1.67,3.53-1.67,9.84,0,19.5-.18,29.35-.18h.92L359,24H360l.37-.37c1.12-.56,4.83-.18,5.95-.18h1.11l.56.37c0,.18.19.18.19.37l.55.56c0,.18.19.18.19.37-.37,1.11.18,2.78.18,3.9l-.55,10.22c-.19,2.22.74,7.61.55,10.21l-.18.37c.93,2.23.74,3,.18,5.39l.38.37c-1.3,12.08,2,25.82,1.3,38.08v.56l-.56,1.11c.37.19,1.49,1.12.74.56.37.75-.55,5.2-.55,6.13-.19,2.6.92,5.2.74,7.8-.37,7.43,1.86,19.14,1.11,25.83l.19.18a3.33,3.33,0,0,0-.74,1.86,2.76,2.76,0,0,1,.74,1.67v.37c0,3,0,5.95-.19,8.92,0,.93-.74,1.67-.55,2.6l-.19.37c1.11.56,1.67,8,1.49,9.47v.19l-.38.74c-.18.37-.37.56-.37.75a1.7,1.7,0,0,0,.56,1.3l-.56.55H361.08v-.18c-.37,0-.56-.37-.93-.56.18-6.5-.37-13,0-19.5L360,144c.19-4.27-.93-8.73-.74-13l.19-.37-.19-.37V130l-.19-.37v-2.23l-.18-.37v-1.49l.18-2.78v-1.3c-.37-.93-.18-2-.74-2.79.19-4.09.19-8.17.37-12.26-.56-.19-.74-8.92-.56-10.22l-.18-.37c0-.56-.19-3.34-.74-3.71h-1.49l-.37.18h-.74l-.38.19c-.18,0-.74-.19-.93.18h-1.11l-2.41-.18h-1.12c-4.09,0-8.17.56-12.44.56H334.7l-3.16-.38h-1.48a20.1,20.1,0,0,0-3.35.38c-.37,5.94-1.48,11.89-1.86,17.83v.56l-.37,1.11v.56l-.18.37a22.28,22.28,0,0,0-.75,3l-.55,7.25c0,1.48-1.12,3-1.12,4.45.37.38.19.75.37,1.12l-.55,1.11A52.52,52.52,0,0,1,320,142.48c-.37,0,0,.56,0,.74v.37l-.18.37c0,.38-.74,2.23-.74,3-.19,1.67-2.61,19.32-3.35,22.47-.74,2.79-2.23,4.83-3.34,7.43v.38l.18.37a2.2,2.2,0,0,1-.93.93c-6.31,6.31-8.91,9.84-18.39,9.66l-.92-.38.37-.55C293.09,187.25,296.06,184.46,296.43,184.09Zm60.37-133V50l-.18-.19c.18-3-.93-6.87-.37-9.66.74-.92.55-1.48.55-2.41,0-.37.19-.93,0-1.3a1,1,0,0,0-.92-.37h-.19l-.56.18h-.37c-4.09.19-8.36,0-12.44,0-2.61,0-5.21.93-7.81.93l-.93.93a5.37,5.37,0,0,1,.38,1.67c-.38,4.46-1.49,8.92-1.68,13.38l-.92,2c0,7.62-3,16.72-3,24l-.37.75h28.61v-.19l.37-.18v-.38a77,77,0,0,0-.74-11.33c-.56-4.27-.19-10.21,0-14.49A10.23,10.23,0,0,1,356.8,51.08Z"/><path class="cls-1" d="M392.28,72.45c0-2.6.56-5,.56-7.62,0-5.57-1.49-13.93.56-18.76l-.56-1.3c.74-3.35.19-18.76.74-19.51a4.5,4.5,0,0,1,.93-.74h2.05l.37-.19.37.19c1.11-.19,2,.37,3.16.37a1.41,1.41,0,0,0,.93-.37,3.53,3.53,0,0,0,1.48-.19l.75.38h.18a3.92,3.92,0,0,1,.93.74,1.65,1.65,0,0,1,.19.93,2.29,2.29,0,0,1-.19,1.11c0,.19,0,.37-.19.37.56,2.42.19,4.28.19,6.69,0,5,.56,10.22.56,15.23,0,5.95-.56,11.71-.37,17.65.18,5.76.55,11.89.55,17.65,0,2-.74,3.9-.74,5.76v.93l.19.18a14.62,14.62,0,0,1,.92,4.09c0,1.3-.55,2.41-.55,3.53v.18l.37.75c0,7.24.56,14.67.56,21.92a37.9,37.9,0,0,0-.19,4.64l-.37.37a4.23,4.23,0,0,1,.74,2.6v.75l-.56,1.67v.74c0,1.3.19,2.6.19,3.9l.37,2.79c0,1.3.19,2.6.19,3.9a4.34,4.34,0,0,0,1.11,1.48v.38a3.83,3.83,0,0,1,.75,1.48c.74,1.67,2.22,2.6,3.15,4.09v.18a9.33,9.33,0,0,1,3.53,1.86,12.56,12.56,0,0,1,1.49.56c3.16-.37,6.69.74,10,.74,2.41,0,5-.55,7.62-.55a.68.68,0,0,1,.55.18c.19-.18.37,0,.19.19a3.09,3.09,0,0,0,1.3-.19,5.3,5.3,0,0,1,3.16-1.67,3.32,3.32,0,0,1,1.3-.37c3.53-2,4.27-5.39,6.5-7.25a46.22,46.22,0,0,0,1.11-10,14.1,14.1,0,0,0-.37-3,37,37,0,0,0,.56-5v-1.3l-.37-2.41v-1.3c.18-9.1.55-18.58.55-27.68,0-1.3-.18-2.6-.18-3.72l-.37-2.6c0-1.3-.19-2.41-.19-3.71V62l.37-1.67v-.74l-.18-.37v-.37l.18-.38V57l-.55-3.16V52.38c0-2-.38-5.38.55-7.05v-.56A2.51,2.51,0,0,1,448,43.1l-.18-.19c-.19-5.94,0-11.89,0-17.83.18-.19.55-.37.55-.75l.75-.37h2.78c1.86,0,3-.37,4.28.93a2.5,2.5,0,0,0,1.48-.37l.37-.19a6.15,6.15,0,0,0,1.12-.55l.74.18.37.37v.19l.19.19v1.85l-.56,3.16v1.67c0,3.53-.19,8.18.56,11.33a1.38,1.38,0,0,0-.19.93l-.37.75c.93,1.48.56,18.39.56,22.29,0,1.67-.37,6.5-.19,7.61a11.28,11.28,0,0,1,.56,2.42c0,1.49-1.12,7.61-.19,8.73v1.11a4.71,4.71,0,0,1-.37,2.23l.37.38c0,.37.19.55.38.92.18,1.12-.56,2-.38,3.16l-.18.19.18.18a48.3,48.3,0,0,1,.56,5.2v.93l-.56,1.86v.93c0,2.6.56,5.2.56,7.62,0,3.34.19,6.68.19,10,0,7.61-.93,12.26-.93,19.69a4.35,4.35,0,0,0,.56,2.23c0,.55-2,7.8-1.86,8a1.41,1.41,0,0,0-.37.93l-1.12,1.68c0,.37-.18.55-.37.92a6.4,6.4,0,0,0-.93,1.49c-.56.93-1.3,1.11-2,1.86v.55c-3,5.76-12.63,7.25-14.68,9.29-1.85,0-5.2.93-5.94.75-.93.55-7.25,1.11-8.17,1.11-1.68,0-13.19-1.86-14.68-2.6-1.11-.56-1.86-1.49-3.16-1.49-1.86-1.85-4.08-1.67-6.69-5.38-.92-.37-3.52-3.53-4.27-4.46,0-.93-1.3-2.79-1.67-3.72v-.37l-.19-.18a27.5,27.5,0,0,1-.74-3.72,1.87,1.87,0,0,1-.74-1.3c-.93-1.3-.56-10.4-.56-13.19a32.11,32.11,0,0,1-.18-4.27c-.56-1.86.37-4.27.37-6.32v-.55l-.56-1.12V77.46a.66.66,0,0,1,.19-.37l.37-.93c0-.18.18-.18.18-.37A11.3,11.3,0,0,1,392.28,72.45Z"/><path class="cls-1" d="M546.83,24.71v.55c-.18.37-.37,1.49-.55,1.3v.38a1.48,1.48,0,0,1-.37.74l-.56,1.48c-.19.19-.19.56-.37.75v.37l-.19,1.11v.37l-.18.19c.18.93-.75,3-.56,3.72-.37.92-.93.92-1.86,1.11a24.65,24.65,0,0,1-3.53-.74c-.74-.19-1.49.55-2.23.74h-7.24l-.56-.37h-.37l-.93.56h-11.7l-2.42-.38H512.1c-2.23,1.12-18.39.75-22.67.75a1.79,1.79,0,0,1-.92.74,13.4,13.4,0,0,1,.55,2.6l.19.19c-.93,5,0,10.21,0,15.23a28.82,28.82,0,0,0,2,10.4c-.18.56,1.12,2,1.49,2.6v.37l.37.38c.19.18.19.37.37.74l.56,1.3a1.48,1.48,0,0,1,.37.74c.19.19.19.37.37.37l.37,1.12c.19,0,.19.18.37.37-.18.56.38,1.49.56,1.86v.56A10.8,10.8,0,0,1,498,79.13a50.85,50.85,0,0,0,10.77,9.11v.18a3.41,3.41,0,0,1,.75.93h.93c.37.56,1.67.74,1.85,1.67v.19h.37c.93.37,10.41,3.71,11.52,3.53l.37.18.56.93c.19-.18.37-.56.74-.56a102,102,0,0,1,10.59.93c.37,0,.74-.18,1.3-.18l.37-.19c.19.37.93.19,1.12.19l.56.56s.37,6.68.37,7.43c0,5,.18,10.21,0,15.23-.19.18-.56.37-.56.74,0,0,0,.37.19.19a2.58,2.58,0,0,1,.55,1.67v41.8a5.05,5.05,0,0,1-2.23,1.11h-.55c0-.19-.19-.19-.38-.19l-.74-.18c-.18,0-.18-.19-.37-.19a48.07,48.07,0,0,1-7.43.75h-18c-1.67,0-5.76-1.3-7.61-1.86a5.06,5.06,0,0,0-1.12-.93,5.29,5.29,0,0,1-1.67.18,6.57,6.57,0,0,1-2.6-1.85c-4.46-1.86-6.69-5.76-9.66-9.29a32.8,32.8,0,0,1-1.12-3.72l-.37-.37c-2-4.08-3.53-13.74-3.53-18.2v-.75l.37-1.48V126a11.21,11.21,0,0,1-.74-3.53,1.51,1.51,0,0,1,.56-1.68v-2a3.8,3.8,0,0,1,.74-2l.56-.37h1.3l.18.18c2.61,0,5.21-.37,7.81-.37h.74l.74.37c1.49,2.42.56,1.3.56,4.09,0,3,.74,5.76,0,8.73.74.74.37,1.11.93,1.86v1.67l.18,3.53V138c4.09,10,7.81,13.19,18.58,13.19,3.9,0,7.8.56,11.7.56a46.8,46.8,0,0,1,.19-5c0-3-.37-5.76-.37-8.73,0-4.27.56-8.92.56-13.19v-1.11l-.38-2v-1.11l.56-1.3a13.18,13.18,0,0,1-.74-1.86c0-3,.18-5.94.18-8.92-2-.92-4.83-.74-7.06-1.48-3.52-1.12-6.87-2.23-10.4-3.53a14.83,14.83,0,0,0-2.23-.74c-1.48-.93-5-2.42-5.57-3.72-1.49-.19-3.53-1.49-3.9-3.16-1.86-1.85-6.13-3-7.25-5.94v-.37l-.18-.19V89l-.19-.37v-.37c-.18-.19-.55-.19-1.11-.38l-.56-.37-.18-.18a3.59,3.59,0,0,1-1.68-3A4,4,0,0,1,485,82.66v-.18c-1.49-1.67-4.83-11.89-6-12.63V68.73l.19-.37c-2.23-4.09-2.79-14.3-2.79-19.32V47.55a3.44,3.44,0,0,0,.56-1.48c0-.19-.19-.19-.19-.37l-.37-.56-.18-.19c-.19-1.85.55-4.45.55-6.5,0-.55.19-13,.19-13.37.93-.93,2-.56,3.16-.56l.37-.19c.37,0,2.41.56,3.34.56,2.23,0,4.65-.56,6.87-.56H492l2.78.56h1.3c3,0,5.76-.74,8.73-.74,3.16,0,6.5.56,9.66.18.74,0,1.67-.55,2.23-.55,1.49,0,3,.93,4.46,0a22.77,22.77,0,0,1,3.9.37,18.17,18.17,0,0,1,4.46-.37c2.23,0,4.64.18,7.06.18l.37.37v.19l.37-.19h.19l.18-.37c1.86-1.11,5.95.37,7.62-.55C545.91,23.78,546.83,23.78,546.83,24.71Z"/><path class="cls-1" d="M561.69,34c0-3.15.56-6.13.56-9.28l.37-.56,1.12-.37a2.56,2.56,0,0,1,1.11.37h1.3l2.42.56h1.85l.75-.38c5.94,0,12.07.19,18,.19,2.41,0,4.83-.37,7.24-.37a1.44,1.44,0,0,1,.93.18l2,.38a1.72,1.72,0,0,0,.93.18h.37l.93-.18H602l.37-.19h2.42c2-.93,8.17-.93,11.33-.93h13c1.49,0,3,.37,4.28.37a2.81,2.81,0,0,1,1.3-.55h.37l.18.18c2-.18,4.65-.37,6.69-.37a5.53,5.53,0,0,1,2.42.37l.74,1.3c0,.56-.37,1.3-.19,1.86l-.37.93A11.06,11.06,0,0,1,642.68,32l-.55,1.3c0,.37.18.93-.19,1.12v.37l-.56,1.11v.37a1.86,1.86,0,0,1-.92.75h-.75a14.52,14.52,0,0,1-4.08-.56c-1.3.74-22.85.93-25.45.93v3.9l-.19.37c0,2.23-.37,4.27-.37,6.32a16.34,16.34,0,0,0,.56,3c.74,6.31-.19,13-.19,19.32v1.3l.37,2.78v1.86a6.2,6.2,0,0,0-.56,1.67V78l.56.74a10.23,10.23,0,0,1,.19,3.35v.18l-.19.37v.19c.37.56.19,1.86.19,2.6l-.19.19a3.5,3.5,0,0,1-.56,1.48c-.18,3.53.56,7.25.56,11,0,2.79.37,5.39.37,8.17v2.42l-.18.37c0,.93-.56,1.86-.56,2.6,0,4.27.74,8.55.74,13v3.71a.67.67,0,0,0-.18.37l-.19.74c0,.19,0,.19-.18.38h.18c.56,1.67-.37,6.5-.37,8.54,0,3.16.37,6.32.37,9.48,0,4.64-.74,9.47-.56,14.11a3.55,3.55,0,0,0-.37,1.3,3.42,3.42,0,0,1-2.23,1.3h-1.67l-3.16-.37H600.7l-.74-.37a1.12,1.12,0,0,1-.74-.18h-.38c-.37,0-.55-.38-.74-.56V145.64l.37-2v-1.11c0-6.87-1.11-13.93-1.11-20.81a3.05,3.05,0,0,1,.56-1.85v-.56c0-5.2-.75-10.4-.56-15.61l-.37-.92v-1.86l.55-3.35V96c0-3.9-.92-7.62-.92-11.52,0-8.17-.38-16.53-.38-24.71,0-6.5.38-13,.38-19.31l.37-.93v-.93l-.19-1.49v-.74c-7.8-.19-15.6.18-23.59-.19-3.53-.18-6.87.75-10.4-.18l-.75-.75A3.41,3.41,0,0,0,561.69,34Z"/><path class="cls-1" d="M674.08,106.63a3.35,3.35,0,0,1-.56,2.41c1.11,2.23-.19,21.74-.19,25.82,0,8.92-.56,17.46-.56,26.38,0,.19-.18.19-.18.37l-.56.93a.57.57,0,0,1-.18.37v.56a2,2,0,0,1-1.68.93h-.55a.19.19,0,0,1-.19-.19h-.56a.18.18,0,0,0-.18-.18l-.56.37h-.74c-1.86,0-3.9-.19-5.95-.37l-.37-.56v-5.76c0-.74.19-1.11.19-2l-.37-.19c0-.18-.19-.18-.19-.18a29.35,29.35,0,0,1,0-4.09,41.83,41.83,0,0,1,.37-8.36l-.18-.37c.18-3.16-.19-6.69-.19-9.85l-.37-.93v-.37c0-1.3.56-3,.18-4.27l-.18-.19c0-.55-.19-.92-.19-1.3,0-1.11.56-2.41.37-3.53-.92-5.57-.55-12.07-.55-17.83,0-3.53.55-7.06.55-10.4,0-6-.37-11.7-.37-17.65,0-.93,0-6.13.19-7.24l.18-.56v-.19l.19-.18a4.42,4.42,0,0,1-.56-2.23c0-5.2.37-10.22.37-15.42,0-3.16-.55-7.24-.18-10.4a24.2,24.2,0,0,0,.56-3.53v-.74l-.56-1.12V32.88l.56-1.86v-.93c0-1.3-.56-2.6-.56-3.71v-1.3A4.6,4.6,0,0,1,661.81,24h8.55l.37-.18a3.74,3.74,0,0,0,1.49.18A4.43,4.43,0,0,1,673.33,26v1.11l.19,2.42v1.11c0,5.2-.56,10.22-.56,15.42,0,6.31.56,12.82.56,19.32v.37h-.19a12.26,12.26,0,0,1-.37,2.6,12.72,12.72,0,0,1,.37,4.64v1.3L673,76.72V78c.56.56.74,3.34.74,4.27,0,3.9.56,8.92-.37,12.82a24.85,24.85,0,0,1,.56,5.2c0,.19,0,.37-.19.37a2.44,2.44,0,0,1-.37,1.67C674.08,103.47,673.33,105,674.08,106.63Z"/><path class="cls-1" d="M749.68,134.12c0,5.57,1.3,28.61-.75,31a7.43,7.43,0,0,1-2,.19c-2.41,0-6.69,0-8.92-.93l-.92-.74c0-.19,0-.19-.19-.38v-2l.19-.37c0-6.32.18-12.63.18-19l.93-1.67a3.58,3.58,0,0,1-.93-1.86c0-9.84.37-19.5.37-29.35.19-.37.37-.56.37-.93l.38-.74a5.22,5.22,0,0,1-.75-2V105c.19.18.37-.19.56-.38v-.18l.19-.19c0-3.16-.93-6.5-.93-9.47a5.53,5.53,0,0,1,.37-2.42c-.37-.74-.74-1.48-1.12-2.41a1.33,1.33,0,0,0-.74-.37l-.37-.19c-.74-.93-8.92-10.77-9.1-11h-.19l-.18-.37v-.37c-4.28-4.46-7.25-6.69-10.22-11.7-.56-.93-1.67-1.86-2-3,.18-.18-.19-.18-.19-.18-1.3,0-3.53-2.79-4.09-3.72-2.41-3.16-4.64-5.94-7.24-8.91,0,3.52-.37,6.87-.37,10.21,0,.75,0,17.28.74,19.14v8.91l-.19.37a16,16,0,0,1-.37,2.79l.19.19c0,2.23.74,4.27.74,6.31a1.77,1.77,0,0,1-.37,1.3,2.79,2.79,0,0,0,.37,1.12c0,4.64.19,9.28.19,13.93,0,1.48-.56,2.78-.56,4.09v.55l.37.37c.56,1.68.74,6.51,0,7.81a2.7,2.7,0,0,0,.37,1.11v1.49l-.37,3.15v2.42l.37,2.23v1.86l-.37,1.85v.93c0,2.6.37,5,.37,7.8-.18,4.46-.55,9.48-.37,13.94a3.33,3.33,0,0,1-.93,1.3s-.93.18-.93.37c-2.78,0-5.94-.37-8.91-.56l-.93.37c-.56,0-.93-.18-1.3-.18-.19-.19-.74-.75-.74-1.12l-.19-.37v-.74c0-2.42.56-5,.56-7.43,0-3.53-.37-6.88-.37-10.41,0-2.6.55-5.2.55-7.61,0-1.49-.74-3-.18-4.46l.18-.19c0-1.11.19-4.64-.18-5.57-.19-1.67.37-3.34.37-5,0-1.3-.19-6.69-.19-7.06a10.23,10.23,0,0,1-.55-2.23c0-4.65.37-9.48.37-14.12-.93-1.3-.56-11.7-.56-13.37,0-5.76.93-20.07.37-25.83-.37-3.71-.74-8.54-.18-12.07a.63.63,0,0,1,.18-.37l.37-.93c0-.19.19-.19.19-.37v-.19a115.33,115.33,0,0,1-.56-11.7c0-1.86.56-3.72.56-5.76v-.56l-.19-.37V25.08l.19-.37a4,4,0,0,1,2-.93c3.16,0,6.5.18,9.66.18l.74.75a1.61,1.61,0,0,1,.19.92c0,.38-.56,2.05-.56,2.61l.19.37a.18.18,0,0,1,.18.18v1.49c.38.37.38,1.11.56,1.67l.74.37a6.17,6.17,0,0,0,1.86,2.42v.18l.37.75v.18A19.3,19.3,0,0,1,708.25,39l.56.56a11,11,0,0,1,1.49,1.3c.18-.19.18.18.37.37a33,33,0,0,1,4.08,4.83c.93,1.11,1.86,3.16,2.79,4.09,1.12,1.11,2.79,2.22,3.72,3.52v.19a12.17,12.17,0,0,0,1.67,2.6c.18.37,6.87,8.17,7.06,8.17,1.48,3,5,6.32,7.24,8.92V69.85l-.18-.19c-.19-6.32-.38-13-.38-19.32,0-1.86.75-21.55,0-24.15l.38-1.3.55-.56a5.94,5.94,0,0,1,2.6-.37c2,0,9.66.19,9.66,2.6,0,5.76-.55,11.52-.55,17.09v.19l.55,1.11a1.44,1.44,0,0,0-.18.93l-.56,1.3c.19-.18.37,0,.19.19a1,1,0,0,1,.55.93c0,5.38-.37,11-.37,16.53a9.25,9.25,0,0,1,.37,3.16,6.91,6.91,0,0,0-.55,1.86c0,.18.37.37.18.55.56.56.56,24.89.56,29.91,0,4.09-.93,8.55.18,12.63C749.86,113.69,749.68,132.26,749.68,134.12Z"/></g></g></svg>