<svg xmlns="http://www.w3.org/2000/svg" viewBox="0 0 1044.88 150.47"><defs><style>.cls-1{fill:#fff;}</style></defs><g id="Layer_2" data-name="Layer 2"><g id="Layer_7" data-name="Layer 7"><path class="cls-1" d="M0,0H8.36V8.36h8.36v8.36h8.36v8.36h8.36v8.36H41.8V41.8h8.36v8.36h8.35V0H75.23V150.47H58.51V75.23H50.16V66.87H41.8V58.51H33.44V50.16H25.08V41.8H16.72V150.47H0Z"/><path class="cls-1" d="M92,0h16.72V125.39H117v8.36H142.1v-8.36h8.36V0h16.72V142.11h-8.36v8.36H100.31v-8.36H92Z"/><path class="cls-1" d="M192.26,0V8.36h8.36v8.36H209v8.36h8.36v8.36h8.35V41.8h8.36v8.36h8.36v8.35h16.72V50.16h8.36V41.8h8.36V33.44h8.36V25.08h8.36V16.72h8.36V8.36h8.36V0h8.36V150.47H300.93V41.8h-8.36v8.36h-8.36v8.35h-8.36v8.36h-8.36v8.36h-8.36v8.36H242.41V75.23h-8.36V66.87h-8.36V58.51h-8.35V50.16H209V41.8h-8.36V150.47H183.9V0Z"/><path class="cls-1" d="M334.36,0h66.88V8.36h8.36V75.23h-8.36v8.36h8.36v58.52h-8.36v8.36H334.36Zm50.16,66.87V58.51h8.36V25.08h-8.36V16.72H351.08V66.87Zm0,66.88v-8.36h8.36V92h-8.36V83.59H351.08v50.16Z"/><path class="cls-1" d="M426.31,0h75.23V16.72H443V66.87h41.8V83.59H443v50.16h58.51v16.72H426.31Z"/><path class="cls-1" d="M518.26,0h66.87V8.36h8.36V75.23h-8.36v8.36H568.42V92h8.36v16.72h8.35v16.72h8.36v25.08H576.78V133.75h-8.36V117h-8.36V100.31H551.7V92h-8.36V83.59H535v66.88H518.26ZM535,16.72V66.87h33.44V58.51h8.36V25.08h-8.36V16.72Z"/><path class="cls-1" d="M677.08,0V8.36h8.36V75.23h-8.36v8.36H626.93v66.88H610.21V0ZM626.93,16.72V66.87h33.44V58.51h8.36V25.08h-8.36V16.72Z"/><path class="cls-1" d="M702.16,0h16.72V133.75h58.51v16.72H702.16Z"/><path class="cls-1" d="M794.11,8.36h8.36V0H861V8.36h8.36V150.47H852.62V92H810.83v58.52H794.11Zm58.51,66.87V25.08h-8.36V16.72H819.19v8.36h-8.36V75.23Z"/><path class="cls-1" d="M952.93,0V16.72H927.85V150.47H911.14V16.72H886.06V0Z"/><path class="cls-1" d="M969.65,0h75.23V16.72H986.37V66.87h41.79V83.59H986.37v50.16h58.51v16.72H969.65Z"/></g></g></svg>