<svg xmlns="http://www.w3.org/2000/svg" viewBox="0 0 444.03 246.43"><defs><style>.cls-1{fill:#fff;}</style></defs><g id="Layer_2" data-name="Layer 2"><g id="Layer_7" data-name="Layer 7"><path class="cls-1" d="M35.63,21.35l-.13-2.17-3.81-3.27c-1-1.22-2-2.45-3.13-3.67l6-6.53L71,3.13c-.41.54-.68.68-1.9,1.22-2.86,1-5.85,2.72-8.57,3.67a59.94,59.94,0,0,0-11,5.58c-.68.41-1.36.68-1.9,1a38.67,38.67,0,0,0-9.79,5.71c-.41.41-1.09,1.09-1.77,1.09A.25.25,0,0,1,35.63,21.35Zm-.81,86.5,3.8-4.36A1.83,1.83,0,0,1,39,104c.68.41,1.5.68,1.91.95,2.72,1.63,5.16,3.54,6.12,6.53a2.78,2.78,0,0,1,0,2.31l-4.9.41Zm75.47-49.37c0,1.22-.13,2.45-.13,3.81.41,2-.27,4.08.13,6.12a24.36,24.36,0,0,1,.28,6.39c-.55,5-.68,10.06-1.09,15.23,0,1-.55,1.9-.27,2.72a28.83,28.83,0,0,0,1.36,4.62,43.44,43.44,0,0,1,2.85,11.84L92.34,110.7l-7.21-6.39,6.26-7.21-2-28.83L85,64.46,68.68,65.55,71,98.46l7.21,6.39-6.26,7.21-18.22,1.36c-1.36-.68-2.59-1.36-3.94-2.17a8,8,0,0,1-1.5-2c-.82-2.31-2.58-3.68-4.62-5a15.37,15.37,0,0,1-3.27-2.72l.82-.81L35.9,26.25a14.74,14.74,0,0,0,3.81-2.86A35.18,35.18,0,0,1,45.15,19c2.31,1.9,4.76,3.94,5.85,6.39a15.88,15.88,0,0,0,2.31,3.27c2.18,3.12,4.08,6.25,6.39,9.38a6.89,6.89,0,0,1,.82,2c.95.41,2.18.68,3.26,1.22a6.91,6.91,0,0,0,3.27,1.36L67.73,52l16.32-1.09,3.8-4.35-.27-3.26a28.24,28.24,0,0,1,8.84,2.45,6.15,6.15,0,0,0,2.86.81h5.57a12.28,12.28,0,0,0,3.13-.27A1.78,1.78,0,0,1,110,48c.14,1.77.27,3.26.27,4.89L107.71,56Zm-22.84-17L86,19.72,81.6,16.05,65.28,17.14,66.91,40.8a7.12,7.12,0,0,1-3.67-1.36,10.38,10.38,0,0,1-3-3c-2.45-4-4.76-7.75-7.48-11.29a30.56,30.56,0,0,0-3.4-3.94,5.73,5.73,0,0,1-1.5-2c-.41-.82-.14-1.77.41-1.77,2.31-.55,3.94-1.91,5.71-3.13,2.72-1.77,10.34-5,13.87-6.53a39.75,39.75,0,0,0,5.31-1.9c2.31-2.45,5.44-2.59,8.7-2.72a12.46,12.46,0,0,0,5.3-1.23L103.9.82l11.56,10.06.68,9.11a1.51,1.51,0,0,0-.27.82,3.52,3.52,0,0,0-.54,2c-.41,6.8-3.54,12.78-3.81,19.58-.27,1.63-1,2.31-2.72,2.45a23.42,23.42,0,0,1-3.13.14h-1.22c-.82,0-1.64-.28-2.59-.28h-.41c-1,0-1.9.55-3,.68A21.3,21.3,0,0,0,87.45,41.48Zm41.2,59.84-6.39,7.21-5.85.4c-.4-2.31-.81-4.76-1.36-7.2-.27-1.23-.68-2.59-1.08-3.81A3.66,3.66,0,0,1,113,96c-.27-3.8-1.08-7.75.28-11.56a4.94,4.94,0,0,0,.27-2.44,41,41,0,0,1-.14-5.72,1.75,1.75,0,0,1,1.91-1.76,7.7,7.7,0,0,0,2.44.4,10.31,10.31,0,0,0,2.18-.27l1.36,20.4Zm-15-31.42c-.13-2.45-.13-4.89-.4-7.34V60.79l6,5.31.54,6.66a6,6,0,0,0-.68.14h-1.36a5.15,5.15,0,0,1-2-.28A2.82,2.82,0,0,1,113.69,69.9ZM117,32.1c-.14.27-.14.4-.27.54-1.77,4.49-1.5,9.38-2.86,14a4.4,4.4,0,0,0,0,1.36v.81l3.94-4.48Z"/><path class="cls-1" d="M164,94.38l2.72,3,11.29.68c0,.41-.14.82-.14,1.23-.68,4.21-.13,8.16.41,12.51L144,109.34,134,97.92l.95-13.19a3.58,3.58,0,0,0,1-.55,4.44,4.44,0,0,1,1.09-.81c1-.55,1.9-1.09,2.58-1.5a6.2,6.2,0,0,0,2.72-2.17c1.36-2,2.86-4.09,4.22-6a20.5,20.5,0,0,0,2.85-6.66c.68-3.13,2.86-5.44,5.17-7.89a6.9,6.9,0,0,1-2.17-.41c-.28,0-.28-.13-.41-.54,0,0,.13-.27.27-.27a20.63,20.63,0,0,1,4.9-1,6.32,6.32,0,0,1,4.08,1.5c1,1,2.44,1.22,3.94,2a1.87,1.87,0,0,1,1.22,1.09ZM142.25,28.7c-.13-.14-.41-.14-.68-.41l-.54-.55c-.27-.81.41-1.08.95-1.36a17.07,17.07,0,0,1,4.08-2.17c1.63-.68,3.67-.41,5.85-.68a9.94,9.94,0,0,0,.81,1.77,36.39,36.39,0,0,1,1.64,5c.54,2.31.81,4.35,1.36,6.8a27.51,27.51,0,0,0,1.08,3.53c.41,1.23,1,2.32,1.36,3.27,1.64,3.4,1.64,6.53.68,10.33-1.63.14-3.4.27-5,.55-2.58.4-3.94,1.9-3.81,4.49a5.77,5.77,0,0,1-1.36,3.94,9.39,9.39,0,0,0-1.49,3.13,15.9,15.9,0,0,1-1.91,4.76c-1.08,2.72-3,4.89-4.76,7.21-.4.68-1.22,1-2,1.63a28.86,28.86,0,0,1-3.4,2.17l3.68-52.76h3.12A1.84,1.84,0,0,0,142.25,28.7ZM151.64.82,169.45,2a6.46,6.46,0,0,0,.14,2.31,5.87,5.87,0,0,1-.41,2.59,1,1,0,0,1-.54.95c-2.18.13-2.86,1.49-3.81,2.85a10.76,10.76,0,0,1-4.9,3.95,12.68,12.68,0,0,0-6.66,4.62,4.64,4.64,0,0,1-3.67,2A16.64,16.64,0,0,0,139,26.66l1.09-15.78Zm19.72,1.36L209.44,4.9l3.94,4.48c0,1.5-2.58,8.57-3.26,9.8a31.15,31.15,0,0,0-1.64,5c-.54,1.63-1.22,3.67-1.9,5.44-1.09,3.4-2.45,6.93-3.54,10.61a31.4,31.4,0,0,1-4.89,10.33,15.93,15.93,0,0,0-3,5.31c-.68,1.9-1.5,2.58-3.54,2.58-.14,0-.27.14-.27.41a.44.44,0,0,0-.41.41.36.36,0,0,0,.41.4,1.43,1.43,0,0,0,1.09.28,5.77,5.77,0,0,1,1.36-.28c2,0,4.35,3,5.16,4.76a48.69,48.69,0,0,1,3.68,6.4,1.66,1.66,0,0,1-1.77,1h-.68c-3-.14-6.12,0-9.11-.68a13.65,13.65,0,0,1-5.17-2.32L189.31,20l-2.59-3-14.28-.95-3.12,2.45L166.6,58.34l-2.86-1.22c-1.77-.82-2.86-2-2.45-4.35,0-.82.14-1.63.14-2.72a5.17,5.17,0,0,0,1.49.54c.28,0,.68-.13.68-.27,0-1.63.82-3.54-1.36-4.49a2,2,0,0,1-1.22-2c-.14-1.63-.14-2.72-1.77-3.81a5,5,0,0,1-1.09-2.58,11.33,11.33,0,0,1-.68-2.86c-.13-1.9-1.08-7.07-2.44-8.43-1.5-3.53.4-6.53,3.12-8.16A15.76,15.76,0,0,1,161,16.32c2.45-.68,4.35-1.63,5.3-4.08a53.36,53.36,0,0,1,5.31-3.67H172V8.16a4.07,4.07,0,0,1,.27-1.77A6.61,6.61,0,0,1,171.36,2.18Zm25.16,72.21a19.24,19.24,0,0,0,3.8-.41,28.57,28.57,0,0,1,3.27-.54c1.77,1.63,2.85,2.85,4.35,4.22a67.09,67.09,0,0,1,6.66,7.48l-1.22,18.35-11.56,9.93-22-1.49c-.41-3.54-.82-6.67-.27-9.93a13.71,13.71,0,0,0,0-2.31,5.74,5.74,0,0,1-.28-1.5l1.91.14L184,95.74l1.36-19.85c.28-.82.55-1.64,1-2.59.27-.68.54-.81,1.08-.81H188a20.82,20.82,0,0,1,4.21,1.09A11.88,11.88,0,0,0,196.52,74.39Zm12.1-44.47c-1.22,4.08-3,8-4.08,12.38a20.51,20.51,0,0,1-4.22,8.84,28.21,28.21,0,0,0-3.26,5,3,3,0,0,0,.27,3.13c2.86,4.08,5.85,8,8.71,12.1a28,28,0,0,0,2.85,4.08c1.91,2,4.22,3.94,6,6.39l4.48-65.41-4.35-5a56.82,56.82,0,0,0-2,6.8c-1.63,1.91-1.77,4.49-2.58,6.8C209.84,26.52,209.16,28.29,208.62,29.92Z"/><path class="cls-1" d="M235.68,97.65c-.41,3.53-1,7.2-1.63,10.88l-9.38-10.75.4-6.25a15,15,0,0,1,1.64.4,15.1,15.1,0,0,0,2.58.14c.68,0,1.36-.14,1.9-.14h.55C236.23,93,236.36,93,235.68,97.65Zm7.89-5.58a27.46,27.46,0,0,1-5.85-.68c-2.72-.41-5.3-1.63-8-1.63a4.83,4.83,0,0,0-1.36.13,7,7,0,0,1-3-1l5.43-78.06L232,9.52l.27.14a13.49,13.49,0,0,1,3,1.9,17.09,17.09,0,0,0,5.58,3A5.49,5.49,0,0,1,244.38,17a24.27,24.27,0,0,0,8,7.21c2.45,1.22,4.76,2.17,7.21,3.4l-4.49,63.78c-3.13,0-6.26.27-9.38.54A11.46,11.46,0,0,1,243.57,92.07Zm2.72-77.65c.54.4.68,1.49,1.63,1.49h.27a48.37,48.37,0,0,0,7.35-8.29A29.1,29.1,0,0,1,259.89,2L242.35.82l-7.76,6.66a36,36,0,0,0,7.35,4.22A25.67,25.67,0,0,1,246.29,14.42ZM284.23,95.2c-.54,3.81.68,7.21,1.36,10.88.55,2.17,1.5,4.62,2,6.93l-52.22-3.67a31,31,0,0,1,1.36-7.89,21.37,21.37,0,0,0,.54-5.16,2.26,2.26,0,0,1,2-2.32h.55a10.84,10.84,0,0,0,3,.28c2.86,0,5.85-.68,8.7-1H255l-.13,1,2.58,3,14.42,1,2.72-2.58.13-2,.14-.27h-.14l.14-2,6,.41C284.37,91.93,284.78,92.07,284.23,95.2Zm24.62-58.48-30.06-2.18,1.09-14.82-2.45-2.86-14.28-.95-3,2.45-.41,6.39c-1.36-.68-2.58-1.36-3.94-1.9a14.4,14.4,0,0,1-6.39-4.63c0-.81.54-1.08,1.08-1.63a33.4,33.4,0,0,0,6.67-7.89A23.15,23.15,0,0,1,260,5.44c1.23-1.09,2.18-2.18,3.13-3.13l37,2.59,10.07,11.56ZM275.66,80.78l7.08.41a1.77,1.77,0,0,0-.14.68A13.88,13.88,0,0,0,284,89.21a10,10,0,0,1-3.81.82,14.1,14.1,0,0,1-2.17-.27,7.83,7.83,0,0,0-1.77-.27c-.41,0-.82.13-1.23.13Zm28.56,22.58-11.69,10.06-2-.13c-.27-1-.68-2.32-.95-3.27-.68-1.9-1-3.94-1.5-6-.82-2.72-1.77-5.71-1.36-8.71a16.35,16.35,0,0,0-1.36-8.43c-.54-1.08-.14-2.31-.14-3.4a10,10,0,0,0,.14-2l20.26,1.36Z"/><path class="cls-1" d="M322.72,19l-7.21-6.12,6.26-7.34,30.05-2,2.86,2.58c-.14.41-.14.68-.27,1-1.36,3.13-2.86,6-6.12,7.62a18.13,18.13,0,0,0-4.63,3.13c-3.53,4.08-8.29,6.25-13.05,8.29-2.18,1.23-4.76,2.45-7.21,2.45Zm31.14,68.13a4.83,4.83,0,0,1,1.36-.13c.55,0,.95,0,1.23.27a6.36,6.36,0,0,0,1.22.82l.82,10.33,7.07,6.39-6.12,7.21-30.06,2.18-7.21-6.39,6.26-7.21-.82-11.43a20.82,20.82,0,0,1,5.85,1,7.43,7.43,0,0,0,1.23.27c.54,0,.81-.27,1.36-1.23a1.47,1.47,0,0,1,1.63-.95c2,.14,3.81.55,5.57.68.82.82,1.23,2.45,2,2.18s0-1.23.14-1.77C348.29,88.53,351,87.85,353.86,87.17ZM349.24,18.5c-.82-1-.14-1.09.68-1.5h.81c1.77,0,2.72-.27,3.27-2a1.6,1.6,0,0,1,1.09-.82L352.77,17l2.45,35.9L365.56,31c.54.27,1.22.81,1.63.81,1.77.14,2.45,1.36,3.13,2.59a69.06,69.06,0,0,0,4.89,8.16,17.63,17.63,0,0,1,2,6.25,18.21,18.21,0,0,0,2.32,6.8c.54,1.23.81,2.45,1.36,3.68a2.45,2.45,0,0,1-.41,2.85c-.95,1.09-.95,2.31-1.23,3.54-.4,3-1.08,5.85-1.36,8.56a16.27,16.27,0,0,1-1.76,4.9,15.84,15.84,0,0,0-2.72,7.62c-.68,0-1.09-.14-1.77-.14L355.9,62.42l1.63,22.17a5,5,0,0,0-1.9-.27,4.55,4.55,0,0,0-2.58.68,14.5,14.5,0,0,1-6.53,1.63,13.08,13.08,0,0,1-3.27-.41,22.46,22.46,0,0,0-5.16-.4h-.68a15.7,15.7,0,0,0-3.54.68c-.41,0-.68-.14-.95-.14s-.14,0-.41.14a2.94,2.94,0,0,1-1.5.27c-.68,0-1.36-.14-2-.14a13.33,13.33,0,0,0-1.49.27l-3.81-54.12a13.82,13.82,0,0,0,2.18-.14c2.44-.68,4.48-3.67,7.48-4.49,2.17-.81,3.94-2.58,6.39-2.72.13,0,.27-.27.27-.54,1.9-3,5.3-3.67,8.43-5,.14,0,.41-.28.68-.55A.83.83,0,0,0,349.24,18.5Zm7.89-10.34a3.14,3.14,0,0,0-.41,3.26c.27,0,.27.28.41.41l1.76-2Zm8.43,1.22L372,2.18,392.89.68a1.18,1.18,0,0,1,.68.14c.68,0,1.5.81,1.91,1.49A36.8,36.8,0,0,1,399,6.94c.14.13.28.4.55.68a23.12,23.12,0,0,0,3,6.52l-4.76,9.8a6.49,6.49,0,0,1-3.54-1.64c-2-2.44-5-2.58-7.88-2.58a7.62,7.62,0,0,0-3.13,1,7.32,7.32,0,0,0,1.9.95,21.68,21.68,0,0,1,3.13.28,7.11,7.11,0,0,1,4.35,1.36c.27.27.55.4.68.68a23,23,0,0,1,3.4,2.31L382.83,55.9l9.38,14a19.9,19.9,0,0,0-2.31,4.35,2.67,2.67,0,0,1-2.58,1.5,4.13,4.13,0,0,0-1.23.14c-6.8-1.23-6.66.27-5.44-6.67a23.33,23.33,0,0,1,2-7.07c.68-1.22.41-2.45,0-3.81-.4-.81-.13-1.63-.68-2.44-1.36-2.59-2.72-5.44-2.72-8.57a10.61,10.61,0,0,0-1.63-4.49,101.89,101.89,0,0,1-6.12-10.47c-.54-.95-1.22-2-2.31-2.18a4.25,4.25,0,0,1-2.58-1.36l6.12-13.33Zm29.78,71.27c.68.54,1.77.4,2.59.68.54.13,1.22.13,1.9.27l8.7,13.46c0,.14,6.67,5.58,7.08,6.26l-6.12,7.21-30.06,2.17-6-5.3c-.14-.82.13-1.63,0-2.45l5-5.85-3.54-5.44a25.62,25.62,0,0,0,1.77-7.61,3.62,3.62,0,0,1,.82-2.72,6.39,6.39,0,0,0,1.08-1.77c.82-1.63,1-2,1.91-2a5,5,0,0,1,1.36.14c2.58.4,5,.54,7.48.81C391.26,79,393.71,79.15,395.34,80.65Zm-2.17-9.11,5.16,7.88c-2.31,0-5.57-2.58-7.34-3.94A21.67,21.67,0,0,1,393.17,71.54ZM401.87,0l7.07,6.39c-.13.27-3.26,3.67-4.89,5.58-1-1.63-1.77-3.27-2.59-4.9C400.51,5,399.15,3,397.93,1a2.2,2.2,0,0,1-.28-.68Z"/><path class="cls-1" d="M0,233.1l4.35-3.81a1.86,1.86,0,0,1,.41.55,9.92,9.92,0,0,0,1.63,1.22c2.45,2,4.63,4.35,5.31,7.34a2.86,2.86,0,0,1-.55,2.32l-4.89-.41Zm81.6-38.49c-.14,1.23-.54,2.45-.68,3.81.14,2-.82,4.08-.68,6.12a25.42,25.42,0,0,1-.68,6.26c-1.22,5-2,10.06-3.13,15-.13,1-.81,1.9-.68,2.72a29,29,0,0,0,.68,4.76,45.5,45.5,0,0,1,1.23,12.1l-21.08-1.5-6.26-7.2,7.21-6.4,1.9-28.83-3.67-4.35L39.44,196l-2.31,32.91,6.25,7.21-7.2,6.39L18,241.12c-1.49-.81-4.49-3-4.76-4.76-.54-2.58-2-4.08-3.94-5.71a12.28,12.28,0,0,1-2.86-3.13l.82-.68,5.3-74.39a25,25,0,0,0,4.08-2.31,36.65,36.65,0,0,1,6-3.54c2,2.18,4.21,4.49,4.89,7.21.55,1.36,1.23,2.31,1.77,3.54,1.77,3.4,3.26,6.66,5,10.06a5.74,5.74,0,0,1,.55,2.18,20.91,20.91,0,0,1,3,1.63,9.61,9.61,0,0,0,3.26,1.9l-.68,9.25,16.32,1.09,4.35-3.81.14-3.26a25.53,25.53,0,0,1,8.3,3.81,6.84,6.84,0,0,0,2.85,1.08c2.59.14,5,1,7.75,1h1c1.08-.14,1.76.81,1.76,2-.13,1.76-.27,3.4-.4,4.89l-3,2.72ZM12.78,147.56l.14-2.18-3.26-3.81a34.18,34.18,0,0,0-2.59-4.08l6.8-5.71,36.59,2.59c-1,.95-9.66,3.12-11.16,3.39a57,57,0,0,0-11.69,4.09,11.83,11.83,0,0,1-2,.54c-3.81,1.22-7.21,2.31-10.34,4.35-.68.41-1.36.95-2,.82A.26.26,0,0,1,12.78,147.56Zm48.56,27.06L62.83,153,59,148.65l-16.18-1.23-1.63,23.8a9.47,9.47,0,0,1-3.67-1.9,12.17,12.17,0,0,1-2.45-3.4c-1.91-4.22-3.67-8.3-5.85-12.11a24.84,24.84,0,0,0-2.72-4.49A4.7,4.7,0,0,1,25.3,147c-.41-.81.13-1.77.68-1.63,2.31-.14,4.08-1.36,6-2.31,3.26-1.63,6.8-2,10.06-3.13a45.28,45.28,0,0,1,4.49-1.36c.68-.14,5.17-.82,5.58-1.22a9.17,9.17,0,0,1,5.57-1.63,32.39,32.39,0,0,1,3.54.27,4.83,4.83,0,0,0,1.36.13,13.26,13.26,0,0,0,3.94-.68l16.73,1.23L93.3,148.24l-.55,9.11a1,1,0,0,0-.41.81,5.27,5.27,0,0,0-.81,2C90.17,166.73,86.22,172.31,85,179c-.55,1.63-1.36,2-3,2a42.37,42.37,0,0,1-4.35-.41,17.34,17.34,0,0,0-2.86-.81,25.35,25.35,0,0,0-3,.41A21.36,21.36,0,0,0,61.34,174.62Zm32.36,65L86.5,246l-5.85-.41c-.14-2.45-.14-5-.41-7.48a18.61,18.61,0,0,0-.54-3.81,5.85,5.85,0,0,1-.68-2c.27-3.8,0-7.88,1.9-11.56.27-.68.82-1.22.68-2.17.14-2,.27-3.81.54-5.71,0-1.5,1.23-1.5,2.18-1.5a7.66,7.66,0,0,0,3.4.68h1.09l-1.36,20.4ZM83.37,206.44c.13-2.44.54-4.89.68-7.2,0-.55.13-1.09.13-1.77l5.31,6-.55,6.67a6.42,6.42,0,0,0-.68.13,14.4,14.4,0,0,1-3.26-.81A3,3,0,0,1,83.37,206.44Zm8.43-37c-.14.27-.14.41-.27.55-2.31,4.21-2.86,9.11-4.76,13.46-.14.41-.14.82-.27,1.36v.82L91,181.83Z"/><path class="cls-1" d="M105.4,246.43l-6.53-5.71a8.56,8.56,0,0,1,.41-1.77l2.17-2.59a1,1,0,0,1,.68.28c2.45,2,5.17,3.67,6.8,6.8a10,10,0,0,0,2.32,2.58Zm36.17-9.25-7.07-6.39-.14-.68a8.61,8.61,0,0,1-1.63-.27,7.41,7.41,0,0,0-3.8-.82h-1.5a12.71,12.71,0,0,1-3.26-.27c-2.59-.41-5.17-1.09-8-1.63a32.52,32.52,0,0,1-8-1.77,4.84,4.84,0,0,0-2.59-.68L104.45,233,103,234.6c.41.27.68.54,1.22,1,2.45,2.17,4.76,4.08,6.53,7.21a10.28,10.28,0,0,0,2.86,2.58c.13.27.27.41.27.54l21.62-1.49Zm-3-43.25,20.94-1.36L156,178a18,18,0,0,1,7.21-2.18,2.3,2.3,0,0,1,2.58,1.91c.68,1.9,1.22,3.67.82,5.44a25.3,25.3,0,0,0,.54,13.87c.27.95.54,1.9.82,2.72a3.84,3.84,0,0,1,.13,3,27.67,27.67,0,0,0-1.36,11.56,22.17,22.17,0,0,1-.27,4.22l-3.4-12.65-26,1.77-2.44,20.4c-.14,0-.14.13-.28.13a16.6,16.6,0,0,0-6.25-1.22c-3.26-.27-6.39-.27-9.38-1.5a37.27,37.27,0,0,0-5.17-.81,34.77,34.77,0,0,1-5-1.36,12.46,12.46,0,0,0-2.72-.68l2.85-26c3.4-1.36,6.8-2.45,10.07-3.67a30.27,30.27,0,0,1,4.35-1.22c1.9-.14,3.8-1.36,5.85-1.36h.81a3.1,3.1,0,0,1,2.59-1h1.22a19.16,19.16,0,0,0,5.71-1.08Zm-31.41-49.77,6.25-7.35h1.23a75.12,75.12,0,0,0-3.4,11.16Zm8.43-4.9a15.71,15.71,0,0,0,1.22-2.58l12.92-1a15.44,15.44,0,0,0,2.59,1.22,6.86,6.86,0,0,0,1.63.13h1.36a4.82,4.82,0,0,1,1.9.28c2.72.95,5.58,1.9,8.43,3.13,1.91.68,3.67,1.49,5.71,2,3.54,1.08,6.8,10.33,7.76,13.59a22.26,22.26,0,0,0,2,4.63c.81,1.5,1.9,3,1.9,4.76a9,9,0,0,0,.82,3,10.7,10.7,0,0,1,1.22,4.35c-.54.68-.82,1-1.22,1-2.59.55-5,1.36-7.48,2a9.08,9.08,0,0,1-1,.28l-7.34-28-4.35.27L139.4,186a15.31,15.31,0,0,1-6.94,1.64,24,24,0,0,1-4.21-.55c-.14.55-.28,1.23-1.09,1.36-2.59.82-5.17,1.63-7.48,2.18a26.9,26.9,0,0,0-7.48,2.58c-1.09.41-2.18.95-3.13,1.23l4.9-44.2-1.23-1.23a27.82,27.82,0,0,0,.82-5C113.69,142.39,114.92,140.89,115.6,139.26Zm58.07-6.66a25.69,25.69,0,0,1-.68,4.48,16.6,16.6,0,0,0,.41,2.59c0,2.45-.14,4.76-2.32,6.66-1.9,1.91-3.4,4.49-5.71,6a16.06,16.06,0,0,1-3.94,2.17c-1.09-.27-1-1.22-1.09-1.77-1.36-3.8-3.67-7.2-5.71-10.6a4.92,4.92,0,0,0-2-1.5,27.71,27.71,0,0,1-7.75-3.26c-2.59-.14-5-1.36-7.48-2.18Zm3.13-.14,7.2,6.26-6,7.07,7.89,31c-3,.13-6.26.4-9.52.68a15.82,15.82,0,0,0-5.58,1,1.77,1.77,0,0,1-.81.13,1.72,1.72,0,0,1-1.77-1.49,10,10,0,0,1-.68-3.4,13.82,13.82,0,0,0-1.23-5.31,8,8,0,0,1-.95-3.94,6.94,6.94,0,0,0-1.22-3.13c-.41-.95-1.23-1.63-1.63-2.58a5.37,5.37,0,0,1,.13-2c0-.27.41-.41.68-.55,4.08-2.17,7.07-5.84,10.2-9.11,1.5-1.63,2.45-3,2.18-5.16a36.36,36.36,0,0,1,.27-9.39Zm-2.45,69.63c-.14-.27-.41-.54-.55-.54-2.72,0-3.8-1.09-3.8-4,0-.81-.55-1.49-.82-2.58-1-3.81-1.63-7.89.14-11.7a1.91,1.91,0,0,0,.13-1.22,13.7,13.7,0,0,1,8.84-2.86c1,0,1.91.14,2.72.14.55,0,1,.14,1.5.14a8.9,8.9,0,0,0,1.9-.28,3.35,3.35,0,0,1,1.09-.27h1.09l12.1,47.33,7.21,6.39-6.39,7.21-29.65,2-7.21-6.26,6.26-7.34-.68-2.86a4.86,4.86,0,0,1,.27-1.22,11.6,11.6,0,0,0,0-5.71c-.41-1.91.68-4.22.27-6.67-.41-2,.41-4.21.55-6.25a5.36,5.36,0,0,1,.54-1.36c.27-1.23.82-1.5,1.77-1.5h.68a7.75,7.75,0,0,0,1.77.27l.54-.54S174.62,202.09,174.35,202.09Z"/><path class="cls-1" d="M224.12,145.52l-6.25-7.08,7.2-6.39,45.84,3.27a31.65,31.65,0,0,1-3,5.57,15.89,15.89,0,0,0-3.53,7.48L254,147.56l-5.71,81.6,12,.81a13.25,13.25,0,0,1,2.72,2.86,7.25,7.25,0,0,0,1.77,1.77c2.72,1.63,3.26,4.62,4.62,7.2a10.9,10.9,0,0,1,.68,2.45l-28.15-1.9a14.71,14.71,0,0,1-4.22-3.95c-2.17-3.53-5.85-4.89-9.11-6.39a2,2,0,0,0-1.22-.27c-.68,0-1.36.14-2,.14-.41-3.13-1.36-6-.82-8.84,0-1.09.68-1.77,1.09-2.72a4.1,4.1,0,0,0-1.5.4,7.12,7.12,0,0,0-2,1.91,10.5,10.5,0,0,0-.13,4.62,2.52,2.52,0,0,1-1.23,3,14.07,14.07,0,0,0-4.49,3.81,4.78,4.78,0,0,0-1.63,3.27l-3.4-3.95,7.21-6.25,4.9-69.09a4.74,4.74,0,0,1,1.63-.41c.68,0,1.09.41,2.17,1.5a25.71,25.71,0,0,0,4.76,3.8,2.28,2.28,0,0,0,1.91.82,2.24,2.24,0,0,0,.95-.14v-.27c-.27-1.22-1.63-.54-2.31-1.22-.82-1-1.36-1.5-2-2.31a16,16,0,0,1-2.18-2.18,24.86,24.86,0,0,0-4.49-3.26c-.13,0-.13-.28-.13-.28Zm-.54,94.11c.27.68.54,1,.54,1.49l-6.66-.54-1.36-1.5a8.27,8.27,0,0,1,3.13-4.89c.68-.68,1.36-1.63,2.44-1.63h.41c1.36.4,1.36,2,1.36,3.4S223.17,238.68,223.58,239.63Zm2,1.49,12.92,1a11.77,11.77,0,0,1-1.5-1.91c-2.31-3.67-6.12-5-9.93-6.66-.13,0-.27-.14-.4-.14-.55,0-1,.41-1.09,1.09a2.7,2.7,0,0,0-.27,1.36c0,1.77.4,3.67.27,5.17Zm38.49-10.88h.54l3.67-3.12L270,204.68a19.8,19.8,0,0,0,3.27-4.76c1.63-2.59,2.72-5.44,4.89-7.35a10.89,10.89,0,0,0,2.18-3,24.79,24.79,0,0,0,.41-3.26c2,.27,4.35.27,6.53.54A28.56,28.56,0,0,1,290.9,188a13.59,13.59,0,0,0,4.49,1.09,8.9,8.9,0,0,0,1.9-.28,37.21,37.21,0,0,1,3.81-.13l-3.27,46.65-11.69,10.2-14-1a31.93,31.93,0,0,0-2.58-7.88A1.2,1.2,0,0,0,269,236C267.23,234.19,265.74,232.15,264.11,230.24Zm6.66-88c.82-2.17,1.9-4.49,2.86-6.8l20.12,1.5,10.07,11.56-2.59,37.4h-1.49a6.86,6.86,0,0,0-1.63.13,14.45,14.45,0,0,1-2.45.14,10.5,10.5,0,0,1-4.49-.82,9.59,9.59,0,0,0-2-.27A28.81,28.81,0,0,1,278,182.64a1.05,1.05,0,0,1-.68-.13,40.31,40.31,0,0,0-5.58-2.59l1.91-27.6-3.27-3.54-3.81-.27a2.92,2.92,0,0,1,.14-1.09c.27-1.5.82-2.86,2.45-3.26C270.09,144,270.36,143.07,270.77,142.25Zm-.14,58.62c-.13.13-.27.41-.54.68l1.36-19.31a.52.52,0,0,1,.41.13,10.71,10.71,0,0,1,3,1.23c2.86,1.49,3.81,4.48,1.5,7.2C273.9,193.8,272.54,197.47,270.63,200.87Z"/><path class="cls-1" d="M309.12,142.93l6-6.93a4.24,4.24,0,0,1-1.09,2.58,1.46,1.46,0,0,0,.14,1.63,15.13,15.13,0,0,1,1.5,6.8c0,.68.13,1.23.13,1.77ZM322,230.65l-3.54-51c.14-.13.27-.13.68-.27,1.63,1.9,2.45,4.49,3.54,6.66,1.9,3.68,2.17,7.48,3.26,11.29s2,7.89,3.4,11.7a60,60,0,0,1,2.59,9.65,16.16,16.16,0,0,0,3.12,6.53,9,9,0,0,1,2,5.17,6.19,6.19,0,0,0,3.81,5.3,25.79,25.79,0,0,1-7.34,6.26c-1,.68-1.91,1.09-2.72,1.77l-7.89.54L315.78,238Zm23.12-97.1,7.34,6.39-6.39,7.21.68,9.25c-1,.27-1.9.95-2.86,1.22-2.44,1.09-4.76,3-7.2,4.35-2.72,1.77-5.44,3.67-8.84,4.35-.68.14-1,.68-1.5,1.36a9.37,9.37,0,0,0-1.09,2,4.4,4.4,0,0,1-1.9-3.4c-.27-3.8-1.91-7.07-3.27-10.33a46.4,46.4,0,0,1-2.85-11.15c-.14-1.91-.55-3.4-.82-5.31-.13-.95,0-1.63.68-2s1.23-1.09.41-1.9v-.14Zm-26.93,42.7,1.09-1.09a49.74,49.74,0,0,0,3.67-4.62,23,23,0,0,1-1.77-4.9c-1-3.12-1.63-6.25-3.13-9a20.6,20.6,0,0,1-1.49-4.35ZM346.93,159l4.89,69.63,7.35,6.39-4.36,4.76a6.06,6.06,0,0,1-1.63-.81,2.24,2.24,0,0,1-1.63.68,4.06,4.06,0,0,1-1.22-.27c-1.36-.68-2.59-.68-3.81-1.23a6.16,6.16,0,0,1-2.31-1.77,14.34,14.34,0,0,0-3.81-3.67,2.3,2.3,0,0,1-1.23-2.17,10.74,10.74,0,0,0-3-6.94,14.11,14.11,0,0,1-2.31-6c-.82-3.95-1.5-8-3-11.7-1.36-3.13-2-6.8-2.86-10.2a39.54,39.54,0,0,0-3.26-10.06c-1.36-2.72-2.45-5.44-3.54-8.16,1.5-3.13,1.5-3.13,5.31-3.54a11.42,11.42,0,0,1,1.49-3.26c1-2,1.5-2.32,3.54-2.32.68.14,1.36-.4,1.9-.81,3.67-2.59,7.35-4.9,10.88-7.48,0,0,0-.14.27-.14C345.43,159.66,346.11,159.25,346.93,159Zm6.39,82.69-.55.41-17.4,1.22a27.9,27.9,0,0,0,2.44-1.5,30.48,30.48,0,0,0,3.68-3.53,77.9,77.9,0,0,0,7.34,3,3.29,3.29,0,0,0,2.18.54A11.51,11.51,0,0,1,353.32,241.67Z"/><path class="cls-1" d="M375.35,134.5h17.81a11.59,11.59,0,0,0,.28,2.31,5.55,5.55,0,0,1-.14,2.59,1,1,0,0,1-.54.95c-2.18.27-2.72,1.77-3.54,3.13a10.62,10.62,0,0,1-4.62,4.21,13.27,13.27,0,0,0-6.4,5.17,4.86,4.86,0,0,1-3.53,2.31,16.66,16.66,0,0,0-9.52,5.31l-.68.68V145.38Zm-7.48,28.42c-.14-.13-.41-.13-.68-.27l-.55-.54c-.4-.82.28-1.09.82-1.5a24.4,24.4,0,0,1,3.94-2.45c1.64-.68,3.68-.68,5.72-1.08.27.68.68,1.08.95,1.76a38.3,38.3,0,0,1,2,4.9c.68,2.31,1.09,4.35,1.77,6.66.4,1.23.95,2.45,1.36,3.54s1.08,2.18,1.63,3.13c1.9,3.26,2,6.39,1.36,10.2-1.63.27-3.4.54-5,.95a4,4,0,0,0-3.4,4.76c.27,1.63-.41,2.72-1.09,3.94a8,8,0,0,0-1.23,3.27,20.52,20.52,0,0,1-1.63,4.89,33.78,33.78,0,0,1-4.21,7.48c-.41.68-1.23,1.09-1.91,1.77a38.74,38.74,0,0,1-3.26,2.45v-52.9h1.77a4.78,4.78,0,0,0,1.36-.28A1.45,1.45,0,0,0,367.87,162.92ZM394.25,227l2.86,2.72H408.4v1.22c-.41,4.22.4,8.16,1.22,12.38H375.35l-10.88-10.74v-13.2a3.29,3.29,0,0,0,.95-.54,3.15,3.15,0,0,1,.95-.95c.95-.55,1.91-1.23,2.59-1.63a6.05,6.05,0,0,0,2.44-2.45c1.23-2,2.59-4.22,3.81-6.26a20.26,20.26,0,0,0,2.45-6.8c.41-3.13,2.45-5.57,4.62-8.29a8.77,8.77,0,0,1-2.17-.14c-.27,0-.41-.14-.55-.54,0,0,.14-.28.28-.28a15.21,15.21,0,0,1,5.3-1.36,6.55,6.55,0,0,1,3.67,1.23c1.09.81,2.59,1.09,4.08,1.77a2.08,2.08,0,0,1,1.36.95Zm.82-92.48h38.21l4.22,4.22c0,.54-.27.81-.27,1.36-.55,2.85-1,6-2.31,8.7a30.54,30.54,0,0,0-1.23,5c-.41,1.77-.95,3.81-1.49,5.58-1,3.53-2,7.07-2.86,10.88a30,30,0,0,1-4.22,10.61,16,16,0,0,0-2.58,5.57c-.54,1.91-1.5,2.72-3.26,2.72-.14,0-.28.14-.28.41a.73.73,0,0,0-.4.54c0,.28.13.41.4.41s.55.14.82.14h.27a4.08,4.08,0,0,1,1.63-.27c2.18,0,4.22,2.44,5.31,4.21a62.57,62.57,0,0,1,4.08,6.12c-.27,1.09-1.5,1.23-2.45,1.23-1.77,0-3.67.13-5.44.13a16.81,16.81,0,0,1-3.67-.27,14.64,14.64,0,0,1-5.31-1.9V151l-2.72-2.72H397.11L394.25,151V190.8c-.95-.27-1.9-.68-2.85-1-1.91-.68-3.13-1.9-2.86-4.21v-2.72a4.13,4.13,0,0,0,1.5.4c.27,0,.68-.13.68-.27-.14-1.63.54-3.53-1.64-4.35a2.15,2.15,0,0,1-1.36-2c-.27-1.63-.4-2.72-2-3.67-.54-.27-1.08-1.63-1.36-2.45a11.27,11.27,0,0,1-.81-2.86,20.29,20.29,0,0,0-2.45-7.48c-.14-.13-.41-.54-.54-.68-1.77-3.4-.14-6.52,2.44-8.43a16.83,16.83,0,0,1,2.86-1.77c2.31-.81,4.22-1.9,4.9-4.48a45.68,45.68,0,0,1,5-4c.13-.13.13-.13.41-.13v-.41a8.12,8.12,0,0,1,.13-1.77A7.22,7.22,0,0,1,395.07,134.5Zm29.24,70.31a19.06,19.06,0,0,0,4.76-.68,20.44,20.44,0,0,1,3.13-.81,85.82,85.82,0,0,1,9.11,7.88c.95,1,1.77,2,2.72,3v18.36L433.28,243.3H411.12c-.55-3.4-1.23-6.53-1-9.79a13.71,13.71,0,0,0-.13-2.31c-.14-.55-.27-1-.41-1.5h1.9l2.72-2.72V207a26.46,26.46,0,0,1,.68-2.59,1.49,1.49,0,0,1,1.64-1,21.21,21.21,0,0,1,4.21.82A10.62,10.62,0,0,0,424.31,204.81Zm9.93-45.29c-1,4.22-2.45,8.3-3.27,12.65a20.86,20.86,0,0,1-3.53,9.11,41.52,41.52,0,0,0-3,5.31,2.79,2.79,0,0,0,.55,3c3.13,3.94,6.39,7.62,9.52,11.56,1.09,1.22,1.77,2.72,3.13,3.81,2,1.9,4.48,3.67,6.39,6V145.38l-4.76-4.76a41.79,41.79,0,0,0-1.5,6.94c-1.49,2-1.49,4.62-2.17,6.93C435.19,156.12,434.64,157.89,434.24,159.52Z"/></g></g></svg>