<svg xmlns="http://www.w3.org/2000/svg" viewBox="0 0 648.32 138.19"><defs><style>.cls-1{fill:#fff;}</style></defs><g id="Layer_2" data-name="Layer 2"><g id="Layer_7" data-name="Layer 7"><polygon class="cls-1" points="73.32 48.75 73.32 20.73 80.61 0 0 0 7.29 20.73 7.29 66.41 47.6 84.83 47.6 110.55 45.3 117.46 35.51 117.46 33.2 110.55 33.2 100.95 7.29 89.44 7.29 117.46 0 138.19 80.61 138.19 73.32 117.46 73.32 71.78 33.2 53.36 33.2 27.64 35.51 20.73 45.3 20.73 47.6 27.64 47.6 37.23 73.32 48.75"/><path class="cls-1" d="M91.74,0,84.45,20.73v96.73l7.29,20.73h18.62V92.7h14.39v45.49h18.62l7.29-20.73V20.73L143.37,0Zm33,72H110.36V27.64l2.3-6.91h9.79l2.3,6.91Z"/><polygon class="cls-1" points="235.3 0 202.1 0 202.1 34.16 187.7 0 154.5 0 161.79 20.73 161.79 117.46 154.5 138.19 187.7 138.19 187.7 61.61 202.1 95.77 202.1 138.19 235.3 138.19 228.01 117.46 228.01 20.73 235.3 0"/><polygon class="cls-1" points="306.89 117.46 306.89 0 280.98 0 273.68 0 280.98 20.73 280.98 117.46 273.68 138.19 280.98 138.19 332.22 138.19 339.51 138.19 332.22 117.46 306.89 117.46"/><path class="cls-1" d="M350.64,0l-7.29,20.73v96.73l7.29,20.73h51.44l7.3-20.73V20.73L402.08,0Zm33,110.55-2.31,6.91h-9.78l-2.31-6.91V27.64l2.31-6.91h9.78l2.31,6.91Z"/><path class="cls-1" d="M486.72,80.42,466,73.12l20.73-7.29V20.73L479.43,0H413.21l7.3,20.73v96.73l-7.3,20.73h33.21V83.3h7.48l6.91,2.3v52.59H494l-7.3-20.73ZM460.81,60.27l-6.91,2.3h-7.48V20.73h12.09l2.3,6.91Z"/><polygon class="cls-1" points="505.15 0 497.85 20.73 497.85 117.46 505.15 138.19 556.58 138.19 563.88 117.46 563.88 100.95 538.16 100.95 538.16 110.55 535.86 117.46 526.07 117.46 523.76 110.55 523.76 27.64 526.07 20.73 535.86 20.73 538.16 27.64 538.16 37.23 563.88 37.23 563.88 20.73 556.58 0 505.15 0"/><path class="cls-1" d="M641,20.73,648.32,0H567.71L575,20.73v96.73l-7.3,20.73h33.21V92.7h14.39v45.49h33L641,117.46ZM615.31,72H600.92V27.64l2.3-6.91H613l2.3,6.91Z"/></g></g></svg>