<svg xmlns="http://www.w3.org/2000/svg" viewBox="0 0 1047.66 133.75"><defs><style>.cls-1{fill:#fff;}</style></defs><g id="Layer_2" data-name="Layer 2"><g id="Layer_7" data-name="Layer 7"><path class="cls-1" d="M7.43,7.43V0H74.3V7.43h7.43V37.15H66.87V22.29H59.44V14.86H22.29v7.43H14.86V52h7.43v7.43h52v7.43h7.43v59.45H74.3v7.43H7.43v-7.43H0V96.59H14.86v14.87h7.43v7.43H59.44v-7.43h7.43V81.73H59.44V74.3h-52V66.87H0V7.43Z"/><path class="cls-1" d="M170.9,0V14.86H141.17V133.75H126.31V14.86H96.59V0Z"/><path class="cls-1" d="M185.75,0h74.31V7.43h7.43V66.87h-7.43V74.3H245.2v7.43h7.43V96.59h7.43v14.87h7.43v22.29H252.63V118.89H245.2V104h-7.43V89.16h-7.43V81.73H215.48V74.3H200.62v59.45H185.75Zm14.87,14.86V59.44H245.2V52h7.43V22.29H245.2V14.86Z"/><path class="cls-1" d="M282.35,0h74.3V14.86H297.21V59.44h44.58V74.3H297.21v44.59h59.44v14.86h-74.3Z"/><path class="cls-1" d="M371.51,0h74.3V14.86H386.37V59.44H431V74.3H386.37v44.59h59.44v14.86h-74.3Z"/><path class="cls-1" d="M535,0V14.86H505.26V133.75H490.4V14.86H460.67V0Z"/><path class="cls-1" d="M572.13,0V7.43h7.43v7.43H587v7.43h7.43v7.43h7.43v7.43h7.43v7.43h7.43V0h14.86V133.75H616.71V66.87h-7.43V59.44h-7.43V52h-7.43V44.58H587V37.15h-7.43V29.72h-7.43V22.29H564.7V133.75H549.84V0Z"/><path class="cls-1" d="M646.43,7.43h7.43V0h66.87V7.43h7.43V133.75H713.3v-52h-52v52H646.43ZM713.3,66.87V22.29h-7.43V14.86H668.72v7.43h-7.43V66.87Z"/><path class="cls-1" d="M765.31,0V7.43h7.43v7.43h7.43v7.43h7.43v7.43H795v7.43h14.86V29.72h7.44V22.29h7.43V14.86h7.43V7.43h7.43V0h22.29V133.75H847.05V22.29h-7.43v7.43h-7.43v7.43h-7.43v7.43h-7.43V52h-7.44v7.43H795V52H787.6V44.58h-7.43V37.15h-7.43V29.72h-7.43V22.29h-7.43V133.75H743V0Z"/><path class="cls-1" d="M876.76,0h74.31V14.86H891.62V59.44h44.59V74.3H891.62v44.59h59.45v14.86H876.76Z"/><path class="cls-1" d="M973.36,7.43V0h66.87V7.43h7.43V37.15H1032.8V22.29h-7.43V14.86H988.22v7.43h-7.43V52h7.43v7.43h52v7.43h7.43v59.45h-7.43v7.43H973.36v-7.43h-7.43V96.59h14.86v14.87h7.43v7.43h37.15v-7.43h7.43V81.73h-7.43V74.3h-52V66.87h-7.43V7.43Z"/></g></g></svg>