<svg xmlns="http://www.w3.org/2000/svg" viewBox="0 0 750.66 77.39"><defs><style>.cls-1{fill:#fff;}</style></defs><g id="Layer_2" data-name="Layer 2"><g id="Layer_7" data-name="Layer 7"><path class="cls-1" d="M23.22,7.74H0V0H61.91V7.74H38.69V61.91H23.22Z"/><path class="cls-1" d="M131.56,54.17v7.74H85.13V54.17H77.39V31h7.74V23.22h46.43V31h7.74v7.73h-7.74v7.74H92.86v7.74Zm-7.74-15.48V31h-31v7.73Z"/><path class="cls-1" d="M178,54.17V7.74h-7.74V0h23.22V54.17H209v7.74H162.51V54.17Z"/><path class="cls-1" d="M286.33,54.17v7.74H239.9V54.17h-7.74V31h7.74V23.22h46.43V31h7.74v7.73h-7.74v7.74H247.64v7.74Zm-7.74-15.48V31H247.64v7.73Z"/><path class="cls-1" d="M332.77,7.74H309.55V0h61.91V7.74H348.24V61.91H332.77Z"/><path class="cls-1" d="M448.85,69.65h-7.74v7.74H394.68V69.65h38.69V61.91H394.68V54.17h-7.74V23.22h15.47v31h31V23.22h15.48Z"/><path class="cls-1" d="M518.5,23.22V31h7.73V54.17H518.5v7.74H479.8V77.39H464.32V23.22Zm-38.7,31h31V31h-31Z"/><path class="cls-1" d="M595.88,54.17v7.74H549.45V54.17h-7.74V31h7.74V23.22h46.43V31h7.74v7.73h-7.74v7.74H557.19v7.74Zm-7.74-15.48V31H557.19v7.73Z"/><path class="cls-1" d="M719.7,54.17V15.48H704.23V7.74H719.7V0h15.48V54.17h15.48v7.74H704.23V54.17Z"/></g></g></svg>