<svg xmlns="http://www.w3.org/2000/svg" viewBox="0 0 713.97 174.45"><defs><style>.cls-1{fill:#fff;}</style></defs><g id="Layer_2" data-name="Layer 2"><g id="Layer_7" data-name="Layer 7"><path class="cls-1" d="M5.61,47.68,14,0H61l3,16.75H30.73L28.17,30.93H66.49L75,78.81H0L3,62.06H52.31L49.75,47.68Z"/><path class="cls-1" d="M94.66,0l11,62.06h16.55V0H142V62.06H158.5L169.63,0h19.6l-14,78.81H89L75,0Z"/><path class="cls-1" d="M200.26,16.75l3-16.75h47l2.95,16.75H236.61V62.06h24.63l2.95,16.75h-75l3-16.75h24.72V16.75Z"/><path class="cls-1" d="M339.16,0l-3,16.75H311.57V78.81h-19.7V16.75H267.15L264.19,0Z"/><path class="cls-1" d="M353.14,0h47l3,16.75h-33.2l-8.08,45.31h49.35l3,16.75h-75Z"/><path class="cls-1" d="M489.08,0l-14,78.81h-19.7l5.52-31H442.29l5.52,31h-19.7L414.12,0h19.7l5.52,31h24.52l5.52-31Z"/><path class="cls-1" d="M500.11,16.75l3-16.75h47l3,16.75H536.46V62.06h24.63L564,78.81h-75l3-16.75h24.72V16.75Z"/><path class="cls-1" d="M639,0,625,78.81h-19.7l11-62.06H586.7l11,62.06H578L564,0Z"/><path class="cls-1" d="M669.74,16.75l-8.08,45.31h29.65l-1.87-10.54H672.6l2.95-16.75h30.64l7.78,44H639L653,0h47l3,16.75Z"/><path class="cls-1" d="M138.2,112.2l3-16.75h47l2.95,16.75H174.55v62.25h-19.7V112.2Z"/><path class="cls-1" d="M275.92,95.45l-5.52,31-10.15,8.38,7.19,8.37-5.51,31h-19.7l5.51-31H229.12l5.52,31h-19.7L201,95.45Zm-49.75,31H250.7l2.56-14.28H223.61Z"/><path class="cls-1" d="M289.9,95.45h47l14,78.81h-19.7l-4.63-26.11h-26.3l-4.63,26.11H275.91Zm13.3,36h20.39l-3.45-19.21H306.65Z"/><path class="cls-1" d="M425.84,95.45l-8.47,47.78H379.05l5.52,31h-19.7l-14-78.81Zm-49.75,31h24.53l2.56-14.28H373.53Z"/><path class="cls-1" d="M439.83,95.45h47l2.95,16.75h-33.2L454,126.48H487.6v16.75H451.06l-2.56,14.28h49.35l2.95,16.75h-75Z"/><path class="cls-1" d="M500.8,95.45h75l-3,16.75-39.3,45.31h31.22l-3,16.75h-47l-2.95-16.75,39.3-45.31H503.76Z"/></g></g></svg>