<svg xmlns="http://www.w3.org/2000/svg" viewBox="0 0 763.84 120.97"><defs><style>.cls-1{fill:#fff;}</style></defs><g id="Layer_2" data-name="Layer 2"><g id="Layer_7" data-name="Layer 7"><path class="cls-1" d="M0,0H18.58V83H57V0H75.59V109.2l-9.22,11.63L57,109.2V99.28H0Z"/><path class="cls-1" d="M84.1,0h51.2l6.09,39.71h8.37l9.08,59.57H84.1Zm35.17,16.31H102.68v23.4h20.14ZM102.68,56V83h34.89l-4-26.95Z"/><path class="cls-1" d="M167.35,0h55.87V16.31h-37.3V40.84h41V57.15h-41V83h50.92V99.28H167.35Z"/><path class="cls-1" d="M245.35,99.28V0h51.19l6.24,40.84h8.37l8.94,58.44,1.41,9.92L314.13,121l-11.2-11.77-7.95-52H263.92V99.28Zm18.57-83V40.84H284.2l-3.68-24.53Z"/><path class="cls-1" d="M330,99.28V0h53.33l2.27,14.75h40.56V109.2L416.81,121l-9.22-11.77V31.06H388l2.55,17.16H372l-4.82-31.91H348.59v83Z"/><path class="cls-1" d="M510.41,0V109.2L501.05,121l-9.22-11.77V56.73H453.25V99.28H434.67V0ZM491.83,40.42V16.31H453.25V40.42Z"/><path class="cls-1" d="M574.79,0V16.31h-37.3V83h50.92V99.28h-69.5V0Z"/><path class="cls-1" d="M596.91,0h18.58V40.84h38.44V0H672.5V109.2l-9.21,11.63-9.36-11.63v-52H615.49V99.28H596.91Z"/><path class="cls-1" d="M753.48,0l10.36,8.23-10.36,8.08H723.56v83H705v-83H681V0Z"/></g></g></svg>