<svg xmlns="http://www.w3.org/2000/svg" viewBox="0 0 8129.33 700"><defs><style>.cls-1{fill:#fff;}</style></defs><g id="Layer_2" data-name="Layer 2"><g id="Layer_1-2" data-name="Layer 1"><path class="cls-1" d="M8129.33,210V700h-214V469h-466V298h466V253l-82-82h-385l-82,82V700h-214V210l210-210h557ZM6974.14,700h-289l-264-264h-259V265h551V171h-566l-82,82V700h-214V210l210-210h866V436h-217ZM5369.76,529l82-82V253l-82-82h-485l-82,82V447l82,82Zm-781-319,210-210h657l210,210V490l-210,210h-657l-210-210ZM1480.83,171l-82,82V447l82,82h681V700h-767l-210-210V210l210-210h767V171Zm1,93h593V435h-593Zm857-54,210-210h767V171h-681l-82,82V447l82,82h681V700h-767l-210-210ZM0,0H214V447l82,82H763V0H977V700H210L0,490ZM3864.9,700h214V170h366V0h-947V170h367Z"/></g></g></svg>