<svg xmlns="http://www.w3.org/2000/svg" viewBox="0 0 757.7 113.31"><defs><style>.cls-1{fill:#fff;}</style></defs><g id="Layer_2" data-name="Layer 2"><g id="Layer_7" data-name="Layer 7"><path class="cls-1" d="M25.45,1.86l1.49,7.06H8.54l10,48.66H37L44,91.76l7.06-34.18H69.47l10-48.66H61.11L62.6,1.86H88.05L65,113.31H23L0,1.86Z"/><path class="cls-1" d="M124.64,0V7.06H106.25V22.11H99.19V0ZM99.19,28.79h25.45v7.06H106.25V57.58h18.39v55.73H99.19Z"/><path class="cls-1" d="M161.24,99.2a6.69,6.69,0,0,0,7,7h5.76a6.69,6.69,0,0,0,7.06-7V84.52h25.45v5.57q0,10.59-6.32,16.91t-16.9,6.31H159q-10.59,0-16.91-6.31t-6.31-16.91V52q0-10.59,6.31-16.9T159,28.79h24.33q10.59,0,16.9,6.32T206.56,52v5.57H199.5V51.64a15,15,0,0,0-15.79-15.79H158.63a15,15,0,0,0-15.78,15.79v5.94h18.39Z"/><path class="cls-1" d="M262.84,84.52h25.45v5.57q0,10.59-6.31,16.91t-16.91,6.31H240.92q-10.57,0-16.9-6.31t-6.31-16.91V52q0-10.59,6.31-16.9t16.9-6.32h24.15q10.59,0,16.91,6.32T288.29,52V64.64H243.15V99.2a6.69,6.69,0,0,0,7.06,7h5.58a6.69,6.69,0,0,0,7-7ZM224.76,57.58h56.47V51.64a15,15,0,0,0-15.79-15.79H240.55a15,15,0,0,0-15.79,15.79Z"/><path class="cls-1" d="M384.33,1.86l1.48,7.06H367.42l10,48.66h18.39l7.06,34.18L410,57.58h18.39l10-48.66H420l1.49-7.06h25.45l-23,111.45h-42l-23-111.45Z"/><path class="cls-1" d="M497.64,84.52h25.45v5.57q0,10.59-6.32,16.91t-16.9,6.31H475.72q-10.59,0-16.91-6.31T452.5,90.09V52q0-10.59,6.31-16.9t16.91-6.32h24.15q10.59,0,16.9,6.32T523.09,52V64.64H478V99.2a6.69,6.69,0,0,0,7.06,7h5.57a6.69,6.69,0,0,0,7.06-7ZM459.56,57.58H516V51.64a15,15,0,0,0-15.79-15.79H475.35a15,15,0,0,0-15.79,15.79Z"/><path class="cls-1" d="M601.48,53.87h-7.06V51.64a15,15,0,0,0-15.79-15.79H541.29V57.58h18.39v55.73H534.23V28.79h44q10.57,0,16.9,6.32T601.48,52Z"/><path class="cls-1" d="M670.76,77.83a8.16,8.16,0,0,1,3.81,2.88A7.62,7.62,0,0,1,676,85.26v9.48q0,8.36-5.11,13.46t-13.46,5.11H625.62q-8.36,0-13.46-5.11t-5.11-13.46V91H632.5v10.59c0,3.1,1.54,4.64,4.64,4.64h8.73c3.09,0,4.64-1.54,4.64-4.64V81.73a5.47,5.47,0,0,0-.92-3.06,4.91,4.91,0,0,0-2.61-2L617.64,66.13a15.18,15.18,0,0,1-7.71-5.76,15.36,15.36,0,0,1-2.88-9.1v-3.9q0-8.35,5.11-13.47t13.46-5.11h31.77q8.36,0,13.46,5.11T676,47.37v3.71H668.9V47a10.53,10.53,0,0,0-11.14-11.15H625.25A10.53,10.53,0,0,0,614.11,47v4.64a7.6,7.6,0,0,0,1.39,4.55,8.16,8.16,0,0,0,3.81,2.88Z"/><path class="cls-1" d="M757.7,113.31H710.33q-10.59,0-16.91-6.31t-6.31-16.91V80.8q0-10.58,6.31-16.9t16.91-6.32h40.31V51.46a15,15,0,0,0-15.79-15.79H710a15,15,0,0,0-15.79,15.79v2.41h-7.06V52q0-10.59,6.31-16.9t16.91-6.32h24.15q10.59,0,16.9,6.32T757.7,52ZM712.56,99.2a6.69,6.69,0,0,0,7.06,7h12.63V64.64H719.62a6.69,6.69,0,0,0-7.06,7.06Z"/></g></g></svg>