<svg xmlns="http://www.w3.org/2000/svg" viewBox="0 0 42.81 26.83"><defs><style>.cls-1{fill:#fff;}</style></defs><g id="Layer_2" data-name="Layer 2"><g id="Layer_1-2" data-name="Layer 1"><path class="cls-1" d="M12.42,0a16.5,16.5,0,0,1,3.43.33,7.52,7.52,0,0,1,2.66,1.09,5,5,0,0,1,1.72,2,7.09,7.09,0,0,1,.6,3.09,5.82,5.82,0,0,1-.9,3.32A6.59,6.59,0,0,1,17.24,12a6.36,6.36,0,0,1,3.62,2.45,7.33,7.33,0,0,1,1.19,4.23,7.32,7.32,0,0,1-.76,3.45,6.81,6.81,0,0,1-2.09,2.39,9.18,9.18,0,0,1-3,1.36,13.21,13.21,0,0,1-3.45.44H0V0Zm-.75,10.64a4.18,4.18,0,0,0,2.55-.74,2.78,2.78,0,0,0,1-2.39A3.11,3.11,0,0,0,14.88,6,2.29,2.29,0,0,0,14,5.08a3.42,3.42,0,0,0-1.28-.46,7.19,7.19,0,0,0-1.49-.13H5.8v6.15ZM12,21.85a7.06,7.06,0,0,0,1.62-.17A3.9,3.9,0,0,0,15,21.13a2.81,2.81,0,0,0,.94-1.05,3.62,3.62,0,0,0,.35-1.71,3.45,3.45,0,0,0-1.14-2.91,4.88,4.88,0,0,0-3-.86H5.8v7.25Z"/><path class="cls-1" d="M30.32,21.76a4.63,4.63,0,0,0,3.38,1.15,4.64,4.64,0,0,0,2.74-.8,3.36,3.36,0,0,0,1.4-1.69h4.61a8.73,8.73,0,0,1-3.4,4.92,9.92,9.92,0,0,1-5.52,1.49,11,11,0,0,1-4.07-.72,8.89,8.89,0,0,1-3.08-2.05,9.45,9.45,0,0,1-1.93-3.18,11.55,11.55,0,0,1-.69-4.07,11.07,11.07,0,0,1,.71-4,9.27,9.27,0,0,1,2-3.2A9.59,9.59,0,0,1,29.55,7.5a10.05,10.05,0,0,1,4-.77,9.08,9.08,0,0,1,4.24.94,8.47,8.47,0,0,1,3,2.53,10.29,10.29,0,0,1,1.68,3.62,13.51,13.51,0,0,1,.36,4.24H29A5.31,5.31,0,0,0,30.32,21.76Zm6-10a3.9,3.9,0,0,0-3-1.06,4.45,4.45,0,0,0-2.08.43A4.27,4.27,0,0,0,30,12.16a3.68,3.68,0,0,0-.7,1.34A5.52,5.52,0,0,0,29,14.76h8.52A5.08,5.08,0,0,0,36.33,11.74Z"/><rect class="cls-1" x="27.95" y="1.77" width="10.67" height="2.6"/></g></g></svg>