<svg xmlns="http://www.w3.org/2000/svg" viewBox="0 0 48.21 48.17"><defs><style>.cls-1{fill:#fff;}.cls-2{fill:none;}</style></defs><g id="Layer_2" data-name="Layer 2"><g id="Layer_1-2" data-name="Layer 1"><path class="cls-1" d="M14,9a17.82,17.82,0,0,1,3.87.38,8.4,8.4,0,0,1,3,1.22,5.7,5.7,0,0,1,1.94,2.26,8,8,0,0,1,.68,3.48,6.51,6.51,0,0,1-1,3.74,7.31,7.31,0,0,1-3,2.44,7.13,7.13,0,0,1,4.08,2.76A8.27,8.27,0,0,1,24.83,30,8.27,8.27,0,0,1,24,33.91a7.65,7.65,0,0,1-2.35,2.69,10.37,10.37,0,0,1-3.37,1.53,15.18,15.18,0,0,1-3.88.5H0V9Zm-.84,12A4.71,4.71,0,0,0,16,20.13a3.13,3.13,0,0,0,1.11-2.7,3.54,3.54,0,0,0-.36-1.7,2.7,2.7,0,0,0-1-1,4,4,0,0,0-1.43-.52A8.47,8.47,0,0,0,12.64,14H6.53V21Zm.36,12.62a9,9,0,0,0,1.83-.18,4.29,4.29,0,0,0,1.53-.63,3.17,3.17,0,0,0,1.07-1.19,4.12,4.12,0,0,0,.39-1.92A3.85,3.85,0,0,0,17,26.39a5.51,5.51,0,0,0-3.4-1H6.53v8.16Z"/><path class="cls-1" d="M34.14,33.48A5.21,5.21,0,0,0,38,34.78a5.25,5.25,0,0,0,3.08-.9A3.81,3.81,0,0,0,42.6,32h5.2A9.88,9.88,0,0,1,44,37.52a11.2,11.2,0,0,1-6.22,1.67,12.37,12.37,0,0,1-4.58-.82,9.76,9.76,0,0,1-3.46-2.3,10.47,10.47,0,0,1-2.18-3.58,13,13,0,0,1-.78-4.58,12.51,12.51,0,0,1,.8-4.49,10.41,10.41,0,0,1,2.25-3.6,10.6,10.6,0,0,1,3.47-2.39,11.22,11.22,0,0,1,4.48-.87,10,10,0,0,1,4.77,1.06,9.44,9.44,0,0,1,3.35,2.84,11.58,11.58,0,0,1,1.89,4.08,15.4,15.4,0,0,1,.41,4.78H32.68A6,6,0,0,0,34.14,33.48ZM40.91,22.2A4.44,4.44,0,0,0,37.57,21a5.08,5.08,0,0,0-2.34.48,4.81,4.81,0,0,0-1.49,1.18,4.33,4.33,0,0,0-.8,1.51,6.42,6.42,0,0,0-.26,1.42h9.59A5.78,5.78,0,0,0,40.91,22.2Z"/><rect class="cls-1" x="31.47" y="10.97" width="12.02" height="2.93"/><rect class="cls-2" width="48.17" height="48.17"/></g></g></svg>